<?xml version="1.0" encoding="iso-8859-1"?>
<!-- Generator: Adobe Illustrator 19.0.0, SVG Export Plug-In . SVG Version: 6.00 Build 0)  -->
<svg version="1.1" id="Capa_1" xmlns="http://www.w3.org/2000/svg" xmlns:xlink="http://www.w3.org/1999/xlink" x="0px" y="0px"
	 viewBox="0 0 512 512" style="enable-background:new 0 0 512 512;" xml:space="preserve">
<circle style="fill:#40C488;" cx="256" cy="262.19" r="249.81"/>
<path style="fill:#515A71;" d="M423.467,74.07H99.231c-20.243,0-36.943-15.844-38.06-35.974h-0.064v45.01v335.343
	C106.89,475.48,177.175,512,256,512s149.11-36.52,194.893-93.551V103.643v-2.157C450.888,86.343,438.61,74.07,423.467,74.07z"/>
<g>
	<path style="fill:#41485D;" d="M171.426,74.07H99.231c-20.243,0-36.943-15.844-38.06-35.974h-0.064v45.01v335.343
		c28.54,35.552,66.604,63.129,110.32,78.862V74.07H171.426z"/>
	<path style="fill:#41485D;" d="M110.936,465.568c0-96.553,0-276.113,0-391.499H99.231c-20.243,0-36.943-15.844-38.06-35.974h-0.064
		c0,111.184,0,280.723,0,380.353C75.469,436.339,92.245,452.209,110.936,465.568z"/>
</g>
<path style="fill:#343B4C;" d="M110.936,465.566c0-96.554,0-276.112,0-391.496H99.231l0,0c-20.243,0-36.943-15.844-38.06-35.974
	h-0.064c0,111.184,0,280.723,0,380.353C75.089,435.872,91.618,451.714,110.936,465.566z"/>
<path style="fill:#F55479;" d="M279.434,144.447H178.752c-4.046,0-7.326,3.28-7.326,7.326v100.666
	C171.435,192.795,219.788,144.447,279.434,144.447z"/>
<path style="fill:#FEC63B;" d="M171.426,252.471v100.667c0,4.046,3.28,7.326,7.326,7.326h100.682
	C219.788,360.463,171.435,312.115,171.426,252.471z"/>
<path style="fill:#57B5E9;" d="M279.434,360.463h100.682c4.046,0,7.326-3.28,7.326-7.326V252.455
	C387.443,312.106,339.085,360.463,279.434,360.463z"/>
<path style="fill:#40C488;" d="M380.117,144.447H279.435c59.651,0,108.008,48.357,108.008,108.008V151.773
	C387.443,147.727,384.163,144.447,380.117,144.447z"/>
<path style="fill:#37B77A;" d="M279.434,252.455h108.008c0-59.651-48.357-108.008-108.008-108.008l0,0V252.455z"/>
<g>
	<path style="fill:#616B84;" d="M319.162,430.61h-79.456c-4.445,0-8.049-3.603-8.049-8.049s3.604-8.049,8.049-8.049h79.456
		c4.445,0,8.049,3.603,8.049,8.049S323.608,430.61,319.162,430.61z"/>
	<path style="fill:#616B84;" d="M319.162,459.11h-79.456c-4.445,0-8.049-3.603-8.049-8.049s3.604-8.049,8.049-8.049h79.456
		c4.445,0,8.049,3.603,8.049,8.049S323.608,459.11,319.162,459.11z"/>
</g>
<path style="fill:#FEC63B;" d="M299.298,487.61H259.57c-4.445,0-8.049-3.603-8.049-8.049s3.604-8.049,8.049-8.049h39.728
	c4.445,0,8.049,3.603,8.049,8.049C307.347,484.007,303.744,487.61,299.298,487.61z"/>
<path style="fill:#F7F7F7;" d="M427.331,0H99.199C78.162,0,61.107,17.055,61.107,38.093c0,21.141,17.166,38.123,38.124,38.123
	h324.236c15.147,0,27.427,12.279,27.427,27.427V23.562C450.893,10.549,440.344,0,427.331,0z"/>
<g>
	<path style="fill:#DFE1E5;" d="M132.607,38.093C132.607,17.055,149.662,0,170.7,0H99.2C78.162,0,61.107,17.055,61.107,38.093
		c0,21.141,17.166,38.123,38.124,38.123h71.5C149.773,76.216,132.607,59.233,132.607,38.093z"/>
	<path style="fill:#DFE1E5;" d="M450.893,52.542V33.985c-10.058-3.995-20.737-3.987-22.7-3.939H110.936
		c-4.445,0-8.049,3.603-8.049,8.049s3.604,8.049,8.049,8.049h317.345c0.053,0,0.126-0.001,0.18-0.002
		c4.027-0.089,16.842,0.92,22.426,6.393C450.889,52.537,450.891,52.54,450.893,52.542z"/>
</g>
<path style="fill:#D2D3D6;" d="M126.262,38.095c0-4.446,3.604-8.049,8.049-8.049h-23.375c-4.445,0-8.049,3.603-8.049,8.049
	s3.604,8.049,8.049,8.049h23.375C129.866,46.144,126.262,42.541,126.262,38.095z"/>
<path style="fill:#F9B430;" d="M171.426,252.455c0,59.651,48.357,108.008,108.008,108.008V252.455H171.426z"/>
<path style="fill:#43A0D8;" d="M279.434,360.463L279.434,360.463c59.652,0,108.008-48.357,108.008-108.008H279.434V360.463z"/>
<path style="fill:#ED335F;" d="M279.434,144.447c-59.651,0-108.008,48.357-108.008,108.008h108.008V144.447z"/>
<path style="fill:#43A0D8;" d="M279.434,360.463h87.918c-16.138,0-31.567-3.029-45.758-8.54
	C308.641,357.421,294.393,360.463,279.434,360.463z"/>
<path style="fill:#238CC1;" d="M279.434,324.889v35.574l0,0c14.959,0,29.206-3.042,42.16-8.54
	C305.742,345.768,291.442,336.507,279.434,324.889z"/>
<path style="fill:#F3A225;" d="M242.241,252.455h-70.815c0,59.651,48.357,108.008,108.008,108.008v-35.574
	C259.848,305.937,246.372,280.715,242.241,252.455z"/>
<path style="fill:#DB2659;" d="M240.898,234.009c0-34.985,14.209-66.651,37.169-89.545c-59.02,0.733-106.64,48.797-106.64,107.991
	h70.815C241.361,246.433,240.898,240.275,240.898,234.009z"/>
<g>
</g>
<g>
</g>
<g>
</g>
<g>
</g>
<g>
</g>
<g>
</g>
<g>
</g>
<g>
</g>
<g>
</g>
<g>
</g>
<g>
</g>
<g>
</g>
<g>
</g>
<g>
</g>
<g>
</g>
</svg>
