<?xml version="1.0" encoding="utf-8"?>
<svg id="master-artboard" viewBox="0 0 688.0408325195312 398.1071472167969" version="1.1" xmlns="http://www.w3.org/2000/svg" x="0px" y="0px" style="enable-background:new 0 0 649 485;" width="688.0408325195312px" height="398.1071472167969px"><rect id="ee-background" x="0" y="0" width="688.0408325195312" height="398.1071472167969" style="fill: white; fill-opacity: 0; pointer-events: none;"/>



<path d="M 16.554082274436954 390.65826416015625 C 16.554082274436954 390.65826416015625 30.34442710876465 349.0218505859375 110.72754287719727 343.0320739746094 C 191.11065101623535 337.04229736328125 534.9404907226562 342.0898132324219 534.9404907226562 342.0898132324219 C 534.9404907226562 342.0898132324219 586.6830444335938 342.43023681640625 634.6650390625 396.7857971191406" style="fill: rgb(141, 196, 150); fill-opacity: 1; stroke: rgb(141, 196, 150); stroke-opacity: 1; stroke-width: 3; paint-order: fill;" transform="matrix(-1.123357658796462, -0.00032806643766838614, -0.00032806643766838614, 1.123357658796462, 705.7545002732302, -40.68658496537214)"/><g transform="matrix(0.7848129868507384, 0, 0, 0.7848129868507384, 85.31111249431063, 50.266902923583984)">
		<path d="M 46.599998 286 H 613.599998 V 372.099998 H 46.599998 V 286 Z" class="st0" style="fill: rgb(215, 182, 135); fill-opacity: 1;"/>
		<path d="M 302 149 H 347 V 301 H 302 V 149 Z" class="st0" style="fill: rgb(215, 182, 135); fill-opacity: 1;"/>
		<path d="M 306.5 102 H 342.5 V 150 H 306.5 V 102 Z" class="st0" style="fill: rgb(215, 182, 135); fill-opacity: 1;"/>
	</g><path d="M 491.299988 246.5 L 467.700012 246.5 L 458 286.700012 L 499.600006 286.700012" class="st1" style="fill: rgb(153, 138, 130); fill-opacity: 1;" transform="matrix(0.7848129868507384, 0, 0, 0.7848129868507384, 85.31111249431063, 50.266902923583984)"/><path d="M 329.200012 48 L 319 48 L 311 103 L 338 103" class="st1" style="fill: rgb(148, 168, 128);" transform="matrix(0.7848129868507384, 0, 0, 0.7848129868507384, 85.31111249431063, 50.266902923583984)"/><path d="M 605.299988 246.5 L 581.700012 246.5 L 572 286.700012 L 613.599976 286.700012" class="st1" style="fill: rgb(153, 138, 130); fill-opacity: 1;" transform="matrix(0.7848129868507384, 0, 0, 0.7848129868507384, 85.31111249431063, 50.266902923583984)"/><path d="M 186.800003 246.5 L 163.199997 246.5 L 153.5 286.700012 L 195.100006 286.700012" class="st1" style="fill: rgb(153, 138, 130); fill-opacity: 1;" transform="matrix(0.7848129868507384, 0, 0, 0.7848129868507384, 85.31111249431063, 50.266902923583984)"/><path d="M 79.900002 246.399994 L 56.299999 246.399994 L 46.599998 286.600006 L 88.199997 286.600006" class="st1" style="fill: rgb(153, 138, 130); fill-opacity: 1;" transform="matrix(0.7848129868507384, 0, 0, 0.7848129868507384, 85.31111249431063, 50.266902923583984)"/><path d="M 306.5 101.699997 H 342.5 V 105.699997 H 306.5 V 101.699997 Z" class="st1" style="fill: rgb(153, 138, 130);" transform="matrix(0.7848129868507384, 0, 0, 0.7848129868507384, 85.31111249431063, 50.266902923583984)"/><path d="M 302 149 H 347 V 153 H 302 V 149 Z" class="st1" style="fill: rgb(153, 138, 130);" transform="matrix(0.7848129868507384, 0, 0, 0.7848129868507384, 85.31111249431063, 50.266902923583984)"/><path d="M 88.199997 286.600006 H 153.5 V 372.100006 H 88.199997 V 286.600006 Z" class="st2" style="fill: rgb(196, 165, 123);" transform="matrix(0.7848129868507384, 0, 0, 0.7848129868507384, 85.31111249431063, 50.266902923583984)"/><path d="M 195.100006 286.700012 H 302.000008 V 372.100014 H 195.100006 V 286.700012 Z" class="st2" style="fill: rgb(196, 165, 123);" transform="matrix(0.7848129868507384, 0, 0, 0.7848129868507384, 85.31111249431063, 50.266902923583984)"/><path d="M 347 286 H 458 V 372.099998 H 347 V 286 Z" class="st2" style="fill: rgb(196, 165, 123);" transform="matrix(0.7848129868507384, 0, 0, 0.7848129868507384, 85.31111249431063, 50.266902923583984)"/><path d="M 499.600006 286.700012 H 572.000008 V 372.100014 H 499.600006 V 286.700012 Z" class="st2" style="fill: rgb(196, 165, 123);" transform="matrix(0.7848129868507384, 0, 0, 0.7848129868507384, 85.31111249431063, 50.266902923583984)"/><path d="M 88.199997 286.600006 H 153.5 V 310.000006 H 88.199997 V 286.600006 Z" class="st1" style="fill: rgb(153, 138, 130);" transform="matrix(0.7848129868507384, 0, 0, 0.7848129868507384, 85.31111249431063, 49.48208999633789)"/><path d="M 195.100006 286.700012 H 302.000008 V 310.000011 H 195.100006 V 286.700012 Z" class="st1" style="fill: rgb(153, 138, 130);" transform="matrix(0.7848129868507384, 0, 0, 0.7848129868507384, 85.31111249431063, 49.48208999633789)"/><path d="M 347 286 H 458 V 310 H 347 V 286 Z" class="st1" style="fill: rgb(153, 138, 130); fill-opacity: 1;" transform="matrix(0.7848129868507384, 0, 0, 0.7848129868507384, 85.31111249431063, 50.266902923583984)"/><path d="M 499.600006 286.700012 H 572.000008 V 310.000011 H 499.600006 V 286.700012 Z" class="st1" style="fill: rgb(153, 138, 130);" transform="matrix(0.7848129868507384, 0, 0, 0.7848129868507384, 85.31111249431063, 49.48208999633789)"/><path d="M 311.5 371.79998779296875 L 337.5 371.79998779296875 L 337.5 358 L 337.5 351.5 L 337.5 347.6000061035156 L 337 346.5 L 336.5 345.5 L 336 344.6000061035156 L 335.3999938964844 343.8999938964844 L 334.79998779296875 343.20001220703125 L 334.20001220703125 342.70001220703125 L 333.5 342.1000061035156 L 332.8999938964844 341.6000061035156 L 332 341.1000061035156 L 331.20001220703125 340.5 L 330.20001220703125 340 L 329 339.29998779296875 L 328 338.79998779296875 L 327.1000061035156 338.29998779296875 L 326.3999938964844 337.79998779296875 L 324.5 336.3999938964844 L 322.70001220703125 337.79998779296875 L 321.6000061035156 338.5 L 320.79998779296875 338.8999938964844 L 319.8999938964844 339.3999938964844 L 319.1000061035156 339.79998779296875 L 318.29998779296875 340.29998779296875 L 317.3999938964844 340.79998779296875 L 316.6000061035156 341.29998779296875 L 315.8999938964844 341.70001220703125 L 315.29998779296875 342.20001220703125 L 314.70001220703125 342.70001220703125 L 314.1000061035156 343.29998779296875 L 313.5 344 L 312.8999938964844 344.79998779296875 L 312.5 345.3999938964844 L 312.20001220703125 346.1000061035156 L 311.79998779296875 346.8999938964844 L 311.5 347.6000061035156 Z" class="st1" style="fill: rgb(135, 134, 111);" transform="matrix(0.7848129868507384, 0, 0, 0.7848129868507384, 85.31111249431063, 50.266902923583984)"/><g transform="matrix(0.7848129868507384, 0, 0, 0.7848129868507384, 85.31111249431063, 50.266902923583984)">
				<g>
					<path d="M 327.8999938964844 224.6999969482422 L 340.79998779296875 224.6999969482422 L 340.79998779296875 217.8000030517578 L 340.79998779296875 214.5 L 340.79998779296875 212.60000610351562 L 340.6000061035156 212.10000610351562 L 340.3999938964844 211.5 L 340.1000061035156 211.10000610351562 L 339.79998779296875 210.6999969482422 L 339.5 210.39999389648438 L 339.20001220703125 210.10000610351562 L 338.8999938964844 209.8000030517578 L 338.5 209.60000610351562 L 338.1000061035156 209.3000030517578 L 337.70001220703125 209.10000610351562 L 337.20001220703125 208.8000030517578 L 336.6000061035156 208.5 L 336.1000061035156 208.1999969482422 L 335.6000061035156 208 L 335.29998779296875 207.6999969482422 L 334.3999938964844 207 L 333.3999938964844 207.6999969482422 L 332.8999938964844 208 L 332.5 208.3000030517578 L 332.1000061035156 208.5 L 331.70001220703125 208.6999969482422 L 331.20001220703125 208.89999389648438 L 330.79998779296875 209.1999969482422 L 330.3999938964844 209.39999389648438 L 330.1000061035156 209.6999969482422 L 329.79998779296875 209.89999389648438 L 329.5 210.1999969482422 L 329.20001220703125 210.5 L 328.8999938964844 210.8000030517578 L 328.6000061035156 211.1999969482422 L 328.3999938964844 211.5 L 328.20001220703125 211.8000030517578 L 328 212.3000030517578 L 327.8999938964844 212.60000610351562 Z" class="st1" style="fill: rgb(135, 134, 111);"/>
					<path d="M 327.899994 224.699997 H 340.899994 V 273.999996 H 327.899994 V 224.699997 Z" class="st1" style="fill: rgb(135, 134, 111);"/>
				</g>
				<g>
					<path d="M 308.20001220703125 224.6999969482422 L 321.20001220703125 224.6999969482422 L 321.20001220703125 217.8000030517578 L 321.20001220703125 214.5 L 321.20001220703125 212.60000610351562 L 321 212.10000610351562 L 320.70001220703125 211.5 L 320.3999938964844 211.10000610351562 L 320.1000061035156 210.6999969482422 L 319.79998779296875 210.39999389648438 L 319.5 210.10000610351562 L 319.20001220703125 209.8000030517578 L 318.8999938964844 209.60000610351562 L 318.5 209.3000030517578 L 318 209.10000610351562 L 317.5 208.8000030517578 L 316.8999938964844 208.5 L 316.3999938964844 208.1999969482422 L 316 208 L 315.6000061035156 207.6999969482422 L 314.70001220703125 207 L 313.79998779296875 207.6999969482422 L 313.29998779296875 208 L 312.79998779296875 208.3000030517578 L 312.3999938964844 208.5 L 312 208.6999969482422 L 311.6000061035156 208.89999389648438 L 311.1000061035156 209.1999969482422 L 310.79998779296875 209.39999389648438 L 310.3999938964844 209.6999969482422 L 310.1000061035156 209.89999389648438 L 309.79998779296875 210.1999969482422 L 309.5 210.5 L 309.20001220703125 210.8000030517578 L 308.8999938964844 211.1999969482422 L 308.70001220703125 211.5 L 308.5 211.8000030517578 L 308.29998779296875 212.3000030517578 L 308.20001220703125 212.60000610351562 Z" class="st1" style="fill: rgb(135, 134, 111);"/>
					<path d="M 308.200012 224.699997 H 321.200012 V 273.999996 H 308.200012 V 224.699997 Z" class="st1" style="fill: rgb(135, 134, 111);"/>
				</g>
			</g><g transform="matrix(0.7848129868507384, 0, 0, 0.7848129868507384, 85.31111249431063, 50.266902923583984)">
					<path d="M 308.8999938964844 174 L 313.6000061035156 174 L 313.6000061035156 168.89999389648438 L 313.6000061035156 166.60000610351562 L 313.6000061035156 165.1999969482422 L 313.5 164.8000030517578 L 313.3999938964844 164.39999389648438 L 313.29998779296875 164.10000610351562 L 313.20001220703125 163.8000030517578 L 313.1000061035156 163.60000610351562 L 313 163.39999389648438 L 312.8999938964844 163.1999969482422 L 312.79998779296875 163 L 312.6000061035156 162.8000030517578 L 312.5 162.60000610351562 L 312.29998779296875 162.39999389648438 L 312.1000061035156 162.1999969482422 L 311.8999938964844 162 L 311.70001220703125 161.8000030517578 L 311.6000061035156 161.60000610351562 L 311.29998779296875 161.10000610351562 L 310.8999938964844 161.60000610351562 L 310.70001220703125 161.89999389648438 L 310.6000061035156 162 L 310.3999938964844 162.1999969482422 L 310.29998779296875 162.3000030517578 L 310.1000061035156 162.5 L 310 162.6999969482422 L 309.79998779296875 162.89999389648438 L 309.70001220703125 163 L 309.6000061035156 163.1999969482422 L 309.5 163.39999389648438 L 309.3999938964844 163.60000610351562 L 309.29998779296875 163.8000030517578 L 309.20001220703125 164.10000610351562 L 309.1000061035156 164.39999389648438 L 309 164.60000610351562 L 308.8999938964844 164.89999389648438 L 308.8999938964844 165.1999969482422 Z" class="st1" style="fill: rgb(135, 134, 111);"/>
					<path d="M 308.899994 174 H 313.599994 V 202 H 308.899994 V 174 Z" class="st1" style="fill: rgb(135, 134, 111);"/>
				</g><path d="M 317.79998779296875 174 L 322.5 174 L 322.5 168.89999389648438 L 322.5 166.60000610351562 L 322.5 165.1999969482422 L 322.3999938964844 164.8000030517578 L 322.29998779296875 164.39999389648438 L 322.20001220703125 164.10000610351562 L 322.1000061035156 163.8000030517578 L 322 163.60000610351562 L 321.8999938964844 163.39999389648438 L 321.79998779296875 163.1999969482422 L 321.6000061035156 163 L 321.5 162.8000030517578 L 321.29998779296875 162.60000610351562 L 321.20001220703125 162.39999389648438 L 320.8999938964844 162.1999969482422 L 320.79998779296875 162 L 320.6000061035156 161.8000030517578 L 320.5 161.60000610351562 L 320.1000061035156 161.10000610351562 L 319.79998779296875 161.60000610351562 L 319.6000061035156 161.89999389648438 L 319.3999938964844 162 L 319.29998779296875 162.1999969482422 L 319.1000061035156 162.3000030517578 L 319 162.5 L 318.79998779296875 162.6999969482422 L 318.70001220703125 162.89999389648438 L 318.6000061035156 163 L 318.5 163.1999969482422 L 318.29998779296875 163.39999389648438 L 318.20001220703125 163.60000610351562 L 318.1000061035156 163.8000030517578 L 318 164.10000610351562 L 317.8999938964844 164.39999389648438 L 317.8999938964844 164.60000610351562 L 317.79998779296875 164.89999389648438 L 317.79998779296875 165.1999969482422 Z" class="st1" style="fill: rgb(135, 134, 111);" transform="matrix(0.7848129868507384, 0, 0, 0.7848129868507384, 85.31111249431063, 50.266902923583984)"/><path d="M 317.799988 174 H 322.499988 V 201.4 H 317.799988 V 174 Z" class="st1" style="fill: rgb(135, 134, 111);" transform="matrix(0.7848129868507384, 0, 0, 0.7848129868507384, 85.31111249431063, 50.266902923583984)"/><path d="M 326.6000061035156 174 L 331.29998779296875 174 L 331.29998779296875 168.89999389648438 L 331.29998779296875 166.60000610351562 L 331.29998779296875 165.1999969482422 L 331.29998779296875 164.8000030517578 L 331.20001220703125 164.39999389648438 L 331.1000061035156 164.10000610351562 L 331 163.8000030517578 L 330.8999938964844 163.60000610351562 L 330.79998779296875 163.39999389648438 L 330.6000061035156 163.1999969482422 L 330.5 163 L 330.3999938964844 162.8000030517578 L 330.20001220703125 162.60000610351562 L 330 162.39999389648438 L 329.79998779296875 162.1999969482422 L 329.6000061035156 162 L 329.5 161.8000030517578 L 329.29998779296875 161.60000610351562 L 329 161.10000610351562 L 328.70001220703125 161.60000610351562 L 328.5 161.89999389648438 L 328.29998779296875 162 L 328.20001220703125 162.1999969482422 L 328 162.3000030517578 L 327.8999938964844 162.5 L 327.70001220703125 162.6999969482422 L 327.6000061035156 162.89999389648438 L 327.3999938964844 163 L 327.29998779296875 163.1999969482422 L 327.20001220703125 163.39999389648438 L 327.1000061035156 163.60000610351562 L 327 163.8000030517578 L 326.8999938964844 164.10000610351562 L 326.79998779296875 164.39999389648438 L 326.79998779296875 164.60000610351562 L 326.70001220703125 164.89999389648438 L 326.6000061035156 165.1999969482422 Z" class="st1" style="fill: rgb(135, 134, 111);" transform="matrix(0.7848129868507384, 0, 0, 0.7848129868507384, 85.31111249431063, 50.266902923583984)"/><path d="M 326.600006 174 H 331.300006 V 201.5 H 326.600006 V 174 Z" class="st1" style="fill: rgb(135, 134, 111);" transform="matrix(0.7848129868507384, 0, 0, 0.7848129868507384, 85.31111249431063, 50.266902923583984)"/><path d="M 335.79998779296875 174 L 340.5 174 L 340.5 168.89999389648438 L 340.5 166.60000610351562 L 340.5 165.1999969482422 L 340.3999938964844 164.8000030517578 L 340.29998779296875 164.39999389648438 L 340.20001220703125 164.10000610351562 L 340.1000061035156 163.8000030517578 L 340 163.60000610351562 L 339.8999938964844 163.39999389648438 L 339.79998779296875 163.1999969482422 L 339.70001220703125 163 L 339.5 162.8000030517578 L 339.3999938964844 162.60000610351562 L 339.20001220703125 162.39999389648438 L 339 162.1999969482422 L 338.79998779296875 162 L 338.6000061035156 161.8000030517578 L 338.5 161.60000610351562 L 338.20001220703125 161.10000610351562 L 337.79998779296875 161.60000610351562 L 337.6000061035156 161.89999389648438 L 337.5 162 L 337.29998779296875 162.1999969482422 L 337.20001220703125 162.3000030517578 L 337 162.5 L 336.8999938964844 162.6999969482422 L 336.70001220703125 162.89999389648438 L 336.6000061035156 163 L 336.5 163.1999969482422 L 336.3999938964844 163.39999389648438 L 336.29998779296875 163.60000610351562 L 336.20001220703125 163.8000030517578 L 336 164.10000610351562 L 336 164.39999389648438 L 335.8999938964844 164.60000610351562 L 335.79998779296875 164.89999389648438 L 335.79998779296875 165.1999969482422 Z" class="st1" style="fill: rgb(135, 134, 111);" transform="matrix(0.7848129868507384, 0, 0, 0.7848129868507384, 85.31111249431063, 50.266902923583984)"/><path d="M 335.799988 174 H 340.499988 V 202.200001 H 335.799988 V 174 Z" class="st1" style="fill: rgb(135, 134, 111);" transform="matrix(0.7848129868507384, 0, 0, 0.7848129868507384, 85.31111249431063, 50.266902923583984)"/><path d="M 311.5 315.70001220703125 L 337.5 315.70001220703125 L 337.5 301.8999938964844 L 337.5 295.3999938964844 L 337.5 291.5 L 337 290.3999938964844 L 336.5 289.3999938964844 L 336 288.5 L 335.3999938964844 287.79998779296875 L 334.79998779296875 287.1000061035156 L 334.20001220703125 286.6000061035156 L 333.5 286 L 332.8999938964844 285.5 L 332 285 L 331.20001220703125 284.3999938964844 L 330.20001220703125 283.8999938964844 L 329 283.20001220703125 L 328 282.70001220703125 L 327.1000061035156 282.20001220703125 L 326.3999938964844 281.79998779296875 L 324.5 280.29998779296875 L 322.70001220703125 281.70001220703125 L 321.6000061035156 282.3999938964844 L 320.79998779296875 282.79998779296875 L 319.8999938964844 283.29998779296875 L 319.1000061035156 283.70001220703125 L 318.29998779296875 284.20001220703125 L 317.3999938964844 284.70001220703125 L 316.6000061035156 285.20001220703125 L 315.8999938964844 285.6000061035156 L 315.29998779296875 286.1000061035156 L 314.70001220703125 286.6000061035156 L 314.1000061035156 287.20001220703125 L 313.5 287.8999938964844 L 312.8999938964844 288.70001220703125 L 312.5 289.29998779296875 L 312.20001220703125 290 L 311.79998779296875 290.79998779296875 L 311.5 291.5 Z" class="st2" style="fill: rgb(135, 134, 111);" transform="matrix(0.7848129868507384, 0, 0, 0.7848129868507384, 85.31111249431063, 50.266902923583984)"/><path d="M 338 128.5 A 13.5 13.5 0 0 1 324.5 142 A 13.5 13.5 0 0 1 311 128.5 A 13.5 13.5 0 0 1 324.5 115 A 13.5 13.5 0 0 1 338 128.5 Z" class="st3" style="fill: rgb(255, 255, 255);" transform="matrix(0.7848129868507384, 0, 0, 0.7848129868507384, 85.31111249431063, 50.266902923583984)"/><path d="M 324 120 H 325 V 128.5 H 324 V 120 Z" transform="matrix(0.7848129868507384, 0, 0, 0.7848129868507384, 85.31111249431063, 50.266902923583984)"/><path d="M 320.700012 118.5 H 321.700012 V 129.5 H 320.700012 V 118.5 Z" transform="matrix(-0.6631672382354735, 0.4196393489837646, -0.4196393489837646, -0.6631672382354735, 602.3997126530019, 95.045669555664)"/><path d="M 325.3 128.699997 A 0.8 0.8 0 0 1 324.5 129.499997 A 0.8 0.8 0 0 1 323.7 128.699997 A 0.8 0.8 0 0 1 324.5 127.899997 A 0.8 0.8 0 0 1 325.3 128.699997 Z" transform="matrix(0.7848129868507384, 0, 0, 0.7848129868507384, 85.31111249431063, 50.266902923583984)"/><g transform="matrix(0.7848129868507384, 0, 0, 0.7848129868507384, 85.31111249431063, 50.266902923583984)">
			<g>
				<path d="M 463.70001220703125 349 L 475.79998779296875 349 L 475.79998779296875 339.20001220703125 L 475.79998779296875 334.5 L 475.79998779296875 331.79998779296875 L 475.6000061035156 331 L 475.29998779296875 330.20001220703125 L 475.1000061035156 329.6000061035156 L 474.79998779296875 329.1000061035156 L 474.5 328.6000061035156 L 474.29998779296875 328.20001220703125 L 473.8999938964844 327.79998779296875 L 473.6000061035156 327.5 L 473.29998779296875 327.1000061035156 L 472.8999938964844 326.70001220703125 L 472.3999938964844 326.29998779296875 L 471.79998779296875 325.79998779296875 L 471.3999938964844 325.5 L 471 325.1000061035156 L 470.6000061035156 324.79998779296875 L 469.70001220703125 323.70001220703125 L 468.8999938964844 324.79998779296875 L 468.3999938964844 325.20001220703125 L 468 325.6000061035156 L 467.6000061035156 325.8999938964844 L 467.20001220703125 326.20001220703125 L 466.79998779296875 326.5 L 466.3999938964844 326.8999938964844 L 466.1000061035156 327.20001220703125 L 465.70001220703125 327.6000061035156 L 465.5 327.8999938964844 L 465.20001220703125 328.29998779296875 L 464.8999938964844 328.70001220703125 L 464.6000061035156 329.1000061035156 L 464.29998779296875 329.70001220703125 L 464.20001220703125 330.20001220703125 L 464 330.70001220703125 L 463.79998779296875 331.29998779296875 L 463.70001220703125 331.79998779296875 Z" class="st2" style="fill: rgb(135, 134, 111);"/>
				<path d="M 481.79998779296875 349 L 493.8999938964844 349 L 493.8999938964844 339.20001220703125 L 493.8999938964844 334.5 L 493.8999938964844 331.79998779296875 L 493.70001220703125 331 L 493.3999938964844 330.20001220703125 L 493.20001220703125 329.6000061035156 L 492.8999938964844 329.1000061035156 L 492.6000061035156 328.6000061035156 L 492.3999938964844 328.20001220703125 L 492 327.79998779296875 L 491.70001220703125 327.5 L 491.3999938964844 327.1000061035156 L 490.8999938964844 326.70001220703125 L 490.5 326.29998779296875 L 489.8999938964844 325.79998779296875 L 489.5 325.5 L 489.1000061035156 325.1000061035156 L 488.70001220703125 324.79998779296875 L 487.79998779296875 323.70001220703125 L 487 324.79998779296875 L 486.5 325.20001220703125 L 486.1000061035156 325.6000061035156 L 485.70001220703125 325.8999938964844 L 485.29998779296875 326.20001220703125 L 484.8999938964844 326.5 L 484.5 326.8999938964844 L 484.20001220703125 327.20001220703125 L 483.79998779296875 327.6000061035156 L 483.6000061035156 327.8999938964844 L 483.29998779296875 328.29998779296875 L 483 328.70001220703125 L 482.70001220703125 329.1000061035156 L 482.3999938964844 329.70001220703125 L 482.20001220703125 330.20001220703125 L 482.1000061035156 330.70001220703125 L 481.8999938964844 331.29998779296875 L 481.79998779296875 331.79998779296875 Z" class="st2" style="fill: rgb(135, 134, 111);"/>
			</g>
			<g>
				<path d="M 577.7000122070312 349 L 589.7999877929688 349 L 589.7999877929688 339.20001220703125 L 589.7999877929688 334.5 L 589.7999877929688 331.79998779296875 L 589.5999755859375 331 L 589.2999877929688 330.20001220703125 L 589.0999755859375 329.6000061035156 L 588.7999877929688 329.1000061035156 L 588.5 328.6000061035156 L 588.2999877929688 328.20001220703125 L 587.9000244140625 327.79998779296875 L 587.5999755859375 327.5 L 587.2000122070312 327.1000061035156 L 586.7999877929688 326.70001220703125 L 586.4000244140625 326.29998779296875 L 585.7999877929688 325.79998779296875 L 585.2999877929688 325.5 L 584.9000244140625 325.1000061035156 L 584.5999755859375 324.79998779296875 L 583.7000122070312 323.70001220703125 L 582.9000244140625 324.79998779296875 L 582.4000244140625 325.20001220703125 L 582 325.6000061035156 L 581.5999755859375 325.8999938964844 L 581.2000122070312 326.20001220703125 L 580.7999877929688 326.5 L 580.4000244140625 326.8999938964844 L 580.0999755859375 327.20001220703125 L 579.7000122070312 327.6000061035156 L 579.4000244140625 327.8999938964844 L 579.2000122070312 328.29998779296875 L 578.9000244140625 328.70001220703125 L 578.5999755859375 329.1000061035156 L 578.2999877929688 329.70001220703125 L 578.0999755859375 330.20001220703125 L 578 330.70001220703125 L 577.7999877929688 331.29998779296875 L 577.7000122070312 331.79998779296875 Z" class="st2" style="fill: rgb(135, 134, 111);"/>
				<path d="M 595.7999877929688 349 L 607.9000244140625 349 L 607.9000244140625 339.20001220703125 L 607.9000244140625 334.5 L 607.9000244140625 331.79998779296875 L 607.7000122070312 331 L 607.4000244140625 330.20001220703125 L 607.2000122070312 329.6000061035156 L 606.9000244140625 329.1000061035156 L 606.5999755859375 328.6000061035156 L 606.4000244140625 328.20001220703125 L 606 327.79998779296875 L 605.7000122070312 327.5 L 605.2999877929688 327.1000061035156 L 604.9000244140625 326.70001220703125 L 604.5 326.29998779296875 L 603.9000244140625 325.79998779296875 L 603.4000244140625 325.5 L 603 325.1000061035156 L 602.7000122070312 324.79998779296875 L 601.7999877929688 323.70001220703125 L 601 324.79998779296875 L 600.5 325.20001220703125 L 600.0999755859375 325.6000061035156 L 599.7000122070312 325.8999938964844 L 599.2999877929688 326.20001220703125 L 598.9000244140625 326.5 L 598.5 326.8999938964844 L 598.2000122070312 327.20001220703125 L 597.7999877929688 327.6000061035156 L 597.5 327.8999938964844 L 597.2999877929688 328.29998779296875 L 597 328.70001220703125 L 596.7000122070312 329.1000061035156 L 596.4000244140625 329.70001220703125 L 596.2000122070312 330.20001220703125 L 596.0999755859375 330.70001220703125 L 595.9000244140625 331.29998779296875 L 595.7999877929688 331.79998779296875 Z" class="st2" style="fill: rgb(135, 134, 111);"/>
			</g>
			<g>
				<path d="M 357.8999938964844 349 L 370 349 L 370 339.20001220703125 L 370 334.5 L 370 331.79998779296875 L 369.79998779296875 331 L 369.6000061035156 330.20001220703125 L 369.29998779296875 329.6000061035156 L 369 329.1000061035156 L 368.79998779296875 328.6000061035156 L 368.5 328.20001220703125 L 368.1000061035156 327.79998779296875 L 367.8999938964844 327.5 L 367.5 327.1000061035156 L 367.1000061035156 326.70001220703125 L 366.6000061035156 326.29998779296875 L 366 325.79998779296875 L 365.6000061035156 325.5 L 365.20001220703125 325.1000061035156 L 364.79998779296875 324.79998779296875 L 364 323.70001220703125 L 363.1000061035156 324.79998779296875 L 362.6000061035156 325.20001220703125 L 362.20001220703125 325.6000061035156 L 361.79998779296875 325.8999938964844 L 361.3999938964844 326.20001220703125 L 361 326.5 L 360.6000061035156 326.8999938964844 L 360.29998779296875 327.20001220703125 L 360 327.6000061035156 L 359.70001220703125 327.8999938964844 L 359.3999938964844 328.29998779296875 L 359.1000061035156 328.70001220703125 L 358.79998779296875 329.1000061035156 L 358.5 329.70001220703125 L 358.3999938964844 330.20001220703125 L 358.20001220703125 330.70001220703125 L 358 331.29998779296875 L 357.8999938964844 331.79998779296875 Z" class="st1" style="fill: rgb(135, 134, 111);"/>
				<path d="M 376 349 L 388.1000061035156 349 L 388.1000061035156 339.20001220703125 L 388.1000061035156 334.5 L 388.1000061035156 331.79998779296875 L 387.8999938964844 331 L 387.70001220703125 330.20001220703125 L 387.3999938964844 329.6000061035156 L 387.1000061035156 329.1000061035156 L 386.8999938964844 328.6000061035156 L 386.6000061035156 328.20001220703125 L 386.20001220703125 327.79998779296875 L 386 327.5 L 385.6000061035156 327.1000061035156 L 385.20001220703125 326.70001220703125 L 384.70001220703125 326.29998779296875 L 384.1000061035156 325.79998779296875 L 383.70001220703125 325.5 L 383.29998779296875 325.1000061035156 L 382.8999938964844 324.79998779296875 L 382 323.70001220703125 L 381.20001220703125 324.79998779296875 L 380.70001220703125 325.20001220703125 L 380.29998779296875 325.6000061035156 L 379.8999938964844 325.8999938964844 L 379.5 326.20001220703125 L 379.1000061035156 326.5 L 378.70001220703125 326.8999938964844 L 378.3999938964844 327.20001220703125 L 378.1000061035156 327.6000061035156 L 377.79998779296875 327.8999938964844 L 377.5 328.29998779296875 L 377.20001220703125 328.70001220703125 L 376.8999938964844 329.1000061035156 L 376.6000061035156 329.70001220703125 L 376.5 330.20001220703125 L 376.29998779296875 330.70001220703125 L 376.1000061035156 331.29998779296875 L 376 331.79998779296875 Z" class="st1" style="fill: rgb(135, 134, 111);"/>
				<path d="M 414.20001220703125 349 L 426.29998779296875 349 L 426.29998779296875 339.20001220703125 L 426.29998779296875 334.5 L 426.29998779296875 331.79998779296875 L 426.1000061035156 331 L 425.8999938964844 330.20001220703125 L 425.6000061035156 329.6000061035156 L 425.29998779296875 329.1000061035156 L 425.1000061035156 328.6000061035156 L 424.79998779296875 328.20001220703125 L 424.3999938964844 327.79998779296875 L 424.20001220703125 327.5 L 423.79998779296875 327.1000061035156 L 423.3999938964844 326.70001220703125 L 422.8999938964844 326.29998779296875 L 422.29998779296875 325.79998779296875 L 421.8999938964844 325.5 L 421.5 325.1000061035156 L 421.1000061035156 324.79998779296875 L 420.20001220703125 323.70001220703125 L 419.3999938964844 324.79998779296875 L 418.8999938964844 325.20001220703125 L 418.5 325.6000061035156 L 418.1000061035156 325.8999938964844 L 417.70001220703125 326.20001220703125 L 417.29998779296875 326.5 L 416.8999938964844 326.8999938964844 L 416.6000061035156 327.20001220703125 L 416.29998779296875 327.6000061035156 L 416 327.8999938964844 L 415.70001220703125 328.29998779296875 L 415.3999938964844 328.70001220703125 L 415.1000061035156 329.1000061035156 L 414.79998779296875 329.70001220703125 L 414.70001220703125 330.20001220703125 L 414.5 330.70001220703125 L 414.29998779296875 331.29998779296875 L 414.20001220703125 331.79998779296875 Z" class="st1" style="fill: rgb(135, 134, 111);"/>
				<path d="M 433.29998779296875 349 L 445.3999938964844 349 L 445.3999938964844 339.20001220703125 L 445.3999938964844 334.5 L 445.3999938964844 331.79998779296875 L 445.20001220703125 331 L 445 330.20001220703125 L 444.70001220703125 329.6000061035156 L 444.3999938964844 329.1000061035156 L 444.20001220703125 328.6000061035156 L 443.8999938964844 328.20001220703125 L 443.5 327.79998779296875 L 443.29998779296875 327.5 L 442.8999938964844 327.1000061035156 L 442.5 326.70001220703125 L 442 326.29998779296875 L 441.3999938964844 325.79998779296875 L 441 325.5 L 440.6000061035156 325.1000061035156 L 440.20001220703125 324.79998779296875 L 439.29998779296875 323.70001220703125 L 438.5 324.79998779296875 L 438 325.20001220703125 L 437.6000061035156 325.6000061035156 L 437.20001220703125 325.8999938964844 L 436.79998779296875 326.20001220703125 L 436.3999938964844 326.5 L 436 326.8999938964844 L 435.70001220703125 327.20001220703125 L 435.3999938964844 327.6000061035156 L 435.1000061035156 327.8999938964844 L 434.79998779296875 328.29998779296875 L 434.5 328.70001220703125 L 434.20001220703125 329.1000061035156 L 433.8999938964844 329.70001220703125 L 433.79998779296875 330.20001220703125 L 433.6000061035156 330.70001220703125 L 433.3999938964844 331.29998779296875 L 433.29998779296875 331.79998779296875 Z" class="st1" style="fill: rgb(135, 134, 111);"/>
				<path d="M 395.3999938964844 349 L 407.5 349 L 407.5 339.20001220703125 L 407.5 334.5 L 407.5 331.79998779296875 L 407.29998779296875 331 L 407.1000061035156 330.20001220703125 L 406.79998779296875 329.6000061035156 L 406.5 329.1000061035156 L 406.29998779296875 328.6000061035156 L 406 328.20001220703125 L 405.6000061035156 327.79998779296875 L 405.3999938964844 327.5 L 405 327.1000061035156 L 404.6000061035156 326.70001220703125 L 404.1000061035156 326.29998779296875 L 403.5 325.79998779296875 L 403.1000061035156 325.5 L 402.70001220703125 325.1000061035156 L 402.29998779296875 324.79998779296875 L 401.3999938964844 323.70001220703125 L 400.6000061035156 324.79998779296875 L 400.1000061035156 325.20001220703125 L 399.70001220703125 325.6000061035156 L 399.29998779296875 325.8999938964844 L 398.8999938964844 326.20001220703125 L 398.5 326.5 L 398.1000061035156 326.8999938964844 L 397.79998779296875 327.20001220703125 L 397.5 327.6000061035156 L 397.20001220703125 327.8999938964844 L 396.8999938964844 328.29998779296875 L 396.6000061035156 328.70001220703125 L 396.29998779296875 329.1000061035156 L 396 329.70001220703125 L 395.8999938964844 330.20001220703125 L 395.70001220703125 330.70001220703125 L 395.5 331.29998779296875 L 395.3999938964844 331.79998779296875 Z" class="st1" style="fill: rgb(135, 134, 111);"/>
			</g>
			<g>
				<path d="M 511.8999938964844 349 L 524 349 L 524 339.20001220703125 L 524 334.5 L 524 331.79998779296875 L 523.7999877929688 331 L 523.5999755859375 330.20001220703125 L 523.2999877929688 329.6000061035156 L 523 329.1000061035156 L 522.7999877929688 328.6000061035156 L 522.5 328.20001220703125 L 522.2000122070312 327.79998779296875 L 521.9000244140625 327.5 L 521.5 327.1000061035156 L 521.0999755859375 326.70001220703125 L 520.5999755859375 326.29998779296875 L 520 325.79998779296875 L 519.5999755859375 325.5 L 519.2000122070312 325.1000061035156 L 518.7999877929688 324.79998779296875 L 518 323.70001220703125 L 517.0999755859375 324.79998779296875 L 516.5999755859375 325.20001220703125 L 516.2000122070312 325.6000061035156 L 515.7999877929688 325.8999938964844 L 515.4000244140625 326.20001220703125 L 515 326.5 L 514.5999755859375 326.8999938964844 L 514.2999877929688 327.20001220703125 L 514 327.6000061035156 L 513.7000122070312 327.8999938964844 L 513.4000244140625 328.29998779296875 L 513.0999755859375 328.70001220703125 L 512.7999877929688 329.1000061035156 L 512.5999755859375 329.70001220703125 L 512.4000244140625 330.20001220703125 L 512.2000122070312 330.70001220703125 L 512 331.29998779296875 L 511.8999938964844 331.79998779296875 Z" class="st1" style="fill: rgb(135, 134, 111);"/>
				<path d="M 530 349 L 542.0999755859375 349 L 542.0999755859375 339.20001220703125 L 542.0999755859375 334.5 L 542.0999755859375 331.79998779296875 L 541.9000244140625 331 L 541.7000122070312 330.20001220703125 L 541.4000244140625 329.6000061035156 L 541.0999755859375 329.1000061035156 L 540.9000244140625 328.6000061035156 L 540.5999755859375 328.20001220703125 L 540.2999877929688 327.79998779296875 L 540 327.5 L 539.5999755859375 327.1000061035156 L 539.2000122070312 326.70001220703125 L 538.7000122070312 326.29998779296875 L 538.0999755859375 325.79998779296875 L 537.7000122070312 325.5 L 537.2999877929688 325.1000061035156 L 536.9000244140625 324.79998779296875 L 536.0999755859375 323.70001220703125 L 535.2000122070312 324.79998779296875 L 534.7000122070312 325.20001220703125 L 534.2999877929688 325.6000061035156 L 533.9000244140625 325.8999938964844 L 533.5 326.20001220703125 L 533.0999755859375 326.5 L 532.7000122070312 326.8999938964844 L 532.4000244140625 327.20001220703125 L 532.0999755859375 327.6000061035156 L 531.7999877929688 327.8999938964844 L 531.5 328.29998779296875 L 531.2000122070312 328.70001220703125 L 530.9000244140625 329.1000061035156 L 530.7000122070312 329.70001220703125 L 530.5 330.20001220703125 L 530.2999877929688 330.70001220703125 L 530.0999755859375 331.29998779296875 L 530 331.79998779296875 Z" class="st1" style="fill: rgb(135, 134, 111);"/>
				<path d="M 547.5999755859375 349 L 559.7000122070312 349 L 559.7000122070312 339.20001220703125 L 559.7000122070312 334.5 L 559.7000122070312 331.79998779296875 L 559.5 331 L 559.2000122070312 330.20001220703125 L 559 329.6000061035156 L 558.7000122070312 329.1000061035156 L 558.4000244140625 328.6000061035156 L 558.0999755859375 328.20001220703125 L 557.7999877929688 327.79998779296875 L 557.5 327.5 L 557.0999755859375 327.1000061035156 L 556.7000122070312 326.70001220703125 L 556.2999877929688 326.29998779296875 L 555.7000122070312 325.79998779296875 L 555.2000122070312 325.5 L 554.7999877929688 325.1000061035156 L 554.5 324.79998779296875 L 553.5999755859375 323.70001220703125 L 552.7999877929688 324.79998779296875 L 552.2999877929688 325.20001220703125 L 551.9000244140625 325.6000061035156 L 551.5 325.8999938964844 L 551.0999755859375 326.20001220703125 L 550.7000122070312 326.5 L 550.2999877929688 326.8999938964844 L 549.9000244140625 327.20001220703125 L 549.5999755859375 327.6000061035156 L 549.2999877929688 327.8999938964844 L 549.0999755859375 328.29998779296875 L 548.7999877929688 328.70001220703125 L 548.5 329.1000061035156 L 548.2000122070312 329.70001220703125 L 548 330.20001220703125 L 547.9000244140625 330.70001220703125 L 547.7000122070312 331.29998779296875 L 547.5999755859375 331.79998779296875 Z" class="st1" style="fill: rgb(135, 134, 111);"/>
			</g>
		</g><g transform="matrix(0.7848129868507384, 0, 0, 0.7848129868507384, 85.31111249431063, 50.266902923583984)">
				<path d="M 52.29999923706055 349 L 64.4000015258789 349 L 64.4000015258789 339.20001220703125 L 64.4000015258789 334.5 L 64.4000015258789 331.79998779296875 L 64.19999694824219 331 L 64 330.20001220703125 L 63.70000076293945 329.6000061035156 L 63.400001525878906 329.1000061035156 L 63.20000076293945 328.6000061035156 L 62.900001525878906 328.20001220703125 L 62.5 327.79998779296875 L 62.29999923706055 327.5 L 61.900001525878906 327.1000061035156 L 61.5 326.70001220703125 L 61 326.29998779296875 L 60.400001525878906 325.79998779296875 L 60 325.5 L 59.599998474121094 325.1000061035156 L 59.20000076293945 324.79998779296875 L 58.29999923706055 323.70001220703125 L 57.5 324.79998779296875 L 57 325.20001220703125 L 56.599998474121094 325.6000061035156 L 56.20000076293945 325.8999938964844 L 55.79999923706055 326.20001220703125 L 55.400001525878906 326.5 L 55 326.8999938964844 L 54.70000076293945 327.20001220703125 L 54.400001525878906 327.6000061035156 L 54.099998474121094 327.8999938964844 L 53.79999923706055 328.29998779296875 L 53.5 328.70001220703125 L 53.20000076293945 329.1000061035156 L 52.900001525878906 329.70001220703125 L 52.79999923706055 330.20001220703125 L 52.599998474121094 330.70001220703125 L 52.400001525878906 331.29998779296875 L 52.29999923706055 331.79998779296875 Z" class="st2" style="fill: rgb(135, 134, 111);"/>
				<path d="M 70.4000015258789 349 L 82.5 349 L 82.5 339.20001220703125 L 82.5 334.5 L 82.5 331.79998779296875 L 82.30000305175781 331 L 82.0999984741211 330.20001220703125 L 81.80000305175781 329.6000061035156 L 81.5 329.1000061035156 L 81.30000305175781 328.6000061035156 L 81 328.20001220703125 L 80.5999984741211 327.79998779296875 L 80.4000015258789 327.5 L 80 327.1000061035156 L 79.5999984741211 326.70001220703125 L 79.0999984741211 326.29998779296875 L 78.5 325.79998779296875 L 78.0999984741211 325.5 L 77.69999694824219 325.1000061035156 L 77.30000305175781 324.79998779296875 L 76.4000015258789 323.70001220703125 L 75.5999984741211 324.79998779296875 L 75.0999984741211 325.20001220703125 L 74.69999694824219 325.6000061035156 L 74.30000305175781 325.8999938964844 L 73.9000015258789 326.20001220703125 L 73.5 326.5 L 73.0999984741211 326.8999938964844 L 72.80000305175781 327.20001220703125 L 72.5 327.6000061035156 L 72.19999694824219 327.8999938964844 L 71.9000015258789 328.29998779296875 L 71.5999984741211 328.70001220703125 L 71.30000305175781 329.1000061035156 L 71 329.70001220703125 L 70.9000015258789 330.20001220703125 L 70.69999694824219 330.70001220703125 L 70.5 331.29998779296875 L 70.4000015258789 331.79998779296875 Z" class="st2" style="fill: rgb(135, 134, 111);"/>
			</g><path d="M 159.1999969482422 349 L 171.3000030517578 349 L 171.3000030517578 339.20001220703125 L 171.3000030517578 334.5 L 171.3000030517578 331.79998779296875 L 171.10000610351562 331 L 170.89999389648438 330.20001220703125 L 170.60000610351562 329.6000061035156 L 170.3000030517578 329.1000061035156 L 170.10000610351562 328.6000061035156 L 169.8000030517578 328.20001220703125 L 169.39999389648438 327.79998779296875 L 169.1999969482422 327.5 L 168.8000030517578 327.1000061035156 L 168.39999389648438 326.70001220703125 L 167.89999389648438 326.29998779296875 L 167.3000030517578 325.79998779296875 L 166.89999389648438 325.5 L 166.5 325.1000061035156 L 166.10000610351562 324.79998779296875 L 165.1999969482422 323.70001220703125 L 164.39999389648438 324.79998779296875 L 163.89999389648438 325.20001220703125 L 163.5 325.6000061035156 L 163.10000610351562 325.8999938964844 L 162.6999969482422 326.20001220703125 L 162.3000030517578 326.5 L 161.89999389648438 326.8999938964844 L 161.60000610351562 327.20001220703125 L 161.3000030517578 327.6000061035156 L 161 327.8999938964844 L 160.6999969482422 328.29998779296875 L 160.39999389648438 328.70001220703125 L 160.10000610351562 329.1000061035156 L 159.8000030517578 329.70001220703125 L 159.6999969482422 330.20001220703125 L 159.5 330.70001220703125 L 159.3000030517578 331.29998779296875 L 159.1999969482422 331.79998779296875 Z" class="st2" style="fill: rgb(135, 134, 111);" transform="matrix(0.7848129868507384, 0, 0, 0.7848129868507384, 85.31111249431063, 50.266902923583984)"/><path d="M 177.3000030517578 349 L 189.39999389648438 349 L 189.39999389648438 339.20001220703125 L 189.39999389648438 334.5 L 189.39999389648438 331.79998779296875 L 189.1999969482422 331 L 189 330.20001220703125 L 188.6999969482422 329.6000061035156 L 188.39999389648438 329.1000061035156 L 188.1999969482422 328.6000061035156 L 187.89999389648438 328.20001220703125 L 187.5 327.79998779296875 L 187.3000030517578 327.5 L 186.89999389648438 327.1000061035156 L 186.5 326.70001220703125 L 186 326.29998779296875 L 185.39999389648438 325.79998779296875 L 185 325.5 L 184.60000610351562 325.1000061035156 L 184.1999969482422 324.79998779296875 L 183.3000030517578 323.70001220703125 L 182.5 324.79998779296875 L 182 325.20001220703125 L 181.60000610351562 325.6000061035156 L 181.1999969482422 325.8999938964844 L 180.8000030517578 326.20001220703125 L 180.39999389648438 326.5 L 180 326.8999938964844 L 179.6999969482422 327.20001220703125 L 179.39999389648438 327.6000061035156 L 179.10000610351562 327.8999938964844 L 178.8000030517578 328.29998779296875 L 178.5 328.70001220703125 L 178.1999969482422 329.1000061035156 L 177.89999389648438 329.70001220703125 L 177.8000030517578 330.20001220703125 L 177.60000610351562 330.70001220703125 L 177.39999389648438 331.29998779296875 L 177.3000030517578 331.79998779296875 Z" class="st2" style="fill: rgb(135, 134, 111);" transform="matrix(0.7848129868507384, 0, 0, 0.7848129868507384, 85.31111249431063, 50.266902923583984)"/><path d="M 96.69999694824219 349 L 108.80000305175781 349 L 108.80000305175781 339.20001220703125 L 108.80000305175781 334.5 L 108.80000305175781 331.79998779296875 L 108.5999984741211 331 L 108.4000015258789 330.20001220703125 L 108.0999984741211 329.6000061035156 L 107.9000015258789 329.1000061035156 L 107.5999984741211 328.6000061035156 L 107.30000305175781 328.20001220703125 L 107 327.79998779296875 L 106.69999694824219 327.5 L 106.30000305175781 327.1000061035156 L 105.9000015258789 326.70001220703125 L 105.5 326.29998779296875 L 104.9000015258789 325.79998779296875 L 104.4000015258789 325.5 L 104 325.1000061035156 L 103.69999694824219 324.79998779296875 L 102.80000305175781 323.70001220703125 L 101.9000015258789 324.79998779296875 L 101.5 325.20001220703125 L 101.0999984741211 325.6000061035156 L 100.69999694824219 325.8999938964844 L 100.30000305175781 326.20001220703125 L 99.9000015258789 326.5 L 99.5 326.8999938964844 L 99.0999984741211 327.20001220703125 L 98.80000305175781 327.6000061035156 L 98.5 327.8999938964844 L 98.19999694824219 328.29998779296875 L 98 328.70001220703125 L 97.69999694824219 329.1000061035156 L 97.4000015258789 329.70001220703125 L 97.19999694824219 330.20001220703125 L 97 330.70001220703125 L 96.9000015258789 331.29998779296875 L 96.69999694824219 331.79998779296875 Z" class="st1" style="fill: rgb(135, 134, 111);" transform="matrix(0.7848129868507384, 0, 0, 0.7848129868507384, 85.31111249431063, 50.266902923583984)"/><path d="M 114.80000305175781 349 L 126.9000015258789 349 L 126.9000015258789 339.20001220703125 L 126.9000015258789 334.5 L 126.9000015258789 331.79998779296875 L 126.69999694824219 331 L 126.5 330.20001220703125 L 126.19999694824219 329.6000061035156 L 126 329.1000061035156 L 125.69999694824219 328.6000061035156 L 125.4000015258789 328.20001220703125 L 125.0999984741211 327.79998779296875 L 124.80000305175781 327.5 L 124.4000015258789 327.1000061035156 L 124 326.70001220703125 L 123.5999984741211 326.29998779296875 L 123 325.79998779296875 L 122.5 325.5 L 122.0999984741211 325.1000061035156 L 121.80000305175781 324.79998779296875 L 120.9000015258789 323.70001220703125 L 120 324.79998779296875 L 119.5999984741211 325.20001220703125 L 119.19999694824219 325.6000061035156 L 118.80000305175781 325.8999938964844 L 118.4000015258789 326.20001220703125 L 118 326.5 L 117.5999984741211 326.8999938964844 L 117.19999694824219 327.20001220703125 L 116.9000015258789 327.6000061035156 L 116.5999984741211 327.8999938964844 L 116.30000305175781 328.29998779296875 L 116.0999984741211 328.70001220703125 L 115.80000305175781 329.1000061035156 L 115.5 329.70001220703125 L 115.30000305175781 330.20001220703125 L 115.0999984741211 330.70001220703125 L 115 331.29998779296875 L 114.80000305175781 331.79998779296875 Z" class="st1" style="fill: rgb(135, 134, 111);" transform="matrix(0.7848129868507384, 0, 0, 0.7848129868507384, 85.31111249431063, 50.266902923583984)"/><path d="M 132.39999389648438 349 L 144.5 349 L 144.5 339.20001220703125 L 144.5 334.5 L 144.5 331.79998779296875 L 144.3000030517578 331 L 144.10000610351562 330.20001220703125 L 143.8000030517578 329.6000061035156 L 143.5 329.1000061035156 L 143.3000030517578 328.6000061035156 L 143 328.20001220703125 L 142.6999969482422 327.79998779296875 L 142.39999389648438 327.5 L 142 327.1000061035156 L 141.60000610351562 326.70001220703125 L 141.10000610351562 326.29998779296875 L 140.5 325.79998779296875 L 140.10000610351562 325.5 L 139.6999969482422 325.1000061035156 L 139.3000030517578 324.79998779296875 L 138.5 323.70001220703125 L 137.60000610351562 324.79998779296875 L 137.10000610351562 325.20001220703125 L 136.6999969482422 325.6000061035156 L 136.3000030517578 325.8999938964844 L 135.89999389648438 326.20001220703125 L 135.5 326.5 L 135.10000610351562 326.8999938964844 L 134.8000030517578 327.20001220703125 L 134.5 327.6000061035156 L 134.1999969482422 327.8999938964844 L 133.89999389648438 328.29998779296875 L 133.60000610351562 328.70001220703125 L 133.3000030517578 329.1000061035156 L 133.10000610351562 329.70001220703125 L 132.89999389648438 330.20001220703125 L 132.6999969482422 330.70001220703125 L 132.5 331.29998779296875 L 132.39999389648438 331.79998779296875 Z" class="st1" style="fill: rgb(135, 134, 111);" transform="matrix(0.7848129868507384, 0, 0, 0.7848129868507384, 85.31111249431063, 50.266902923583984)"/><path d="M 204.8000030517578 349 L 216.89999389648438 349 L 216.89999389648438 339.20001220703125 L 216.89999389648438 334.5 L 216.89999389648438 331.79998779296875 L 216.6999969482422 331 L 216.39999389648438 330.20001220703125 L 216.1999969482422 329.6000061035156 L 215.89999389648438 329.1000061035156 L 215.60000610351562 328.6000061035156 L 215.39999389648438 328.20001220703125 L 215 327.79998779296875 L 214.6999969482422 327.5 L 214.39999389648438 327.1000061035156 L 214 326.70001220703125 L 213.5 326.29998779296875 L 212.89999389648438 325.79998779296875 L 212.5 325.5 L 212.10000610351562 325.1000061035156 L 211.6999969482422 324.79998779296875 L 210.8000030517578 323.70001220703125 L 210 324.79998779296875 L 209.5 325.20001220703125 L 209.10000610351562 325.6000061035156 L 208.6999969482422 325.8999938964844 L 208.3000030517578 326.20001220703125 L 207.89999389648438 326.5 L 207.5 326.8999938964844 L 207.1999969482422 327.20001220703125 L 206.8000030517578 327.6000061035156 L 206.60000610351562 327.8999938964844 L 206.3000030517578 328.29998779296875 L 206 328.70001220703125 L 205.6999969482422 329.1000061035156 L 205.39999389648438 329.70001220703125 L 205.3000030517578 330.20001220703125 L 205.10000610351562 330.70001220703125 L 204.89999389648438 331.29998779296875 L 204.8000030517578 331.79998779296875 Z" class="st1" style="fill: rgb(135, 134, 111);" transform="matrix(0.7848129868507384, 0, 0, 0.7848129868507384, 85.31111249431063, 50.266902923583984)"/><path d="M 222.89999389648438 349 L 235 349 L 235 339.20001220703125 L 235 334.5 L 235 331.79998779296875 L 234.8000030517578 331 L 234.5 330.20001220703125 L 234.3000030517578 329.6000061035156 L 234 329.1000061035156 L 233.6999969482422 328.6000061035156 L 233.5 328.20001220703125 L 233.10000610351562 327.79998779296875 L 232.8000030517578 327.5 L 232.5 327.1000061035156 L 232.10000610351562 326.70001220703125 L 231.60000610351562 326.29998779296875 L 231 325.79998779296875 L 230.60000610351562 325.5 L 230.1999969482422 325.1000061035156 L 229.8000030517578 324.79998779296875 L 228.89999389648438 323.70001220703125 L 228.10000610351562 324.79998779296875 L 227.60000610351562 325.20001220703125 L 227.1999969482422 325.6000061035156 L 226.8000030517578 325.8999938964844 L 226.39999389648438 326.20001220703125 L 226 326.5 L 225.60000610351562 326.8999938964844 L 225.3000030517578 327.20001220703125 L 224.89999389648438 327.6000061035156 L 224.6999969482422 327.8999938964844 L 224.39999389648438 328.29998779296875 L 224.10000610351562 328.70001220703125 L 223.8000030517578 329.1000061035156 L 223.5 329.70001220703125 L 223.39999389648438 330.20001220703125 L 223.1999969482422 330.70001220703125 L 223 331.29998779296875 L 222.89999389648438 331.79998779296875 Z" class="st1" style="fill: rgb(135, 134, 111);" transform="matrix(0.7848129868507384, 0, 0, 0.7848129868507384, 85.31111249431063, 50.266902923583984)"/><path d="M 261.1000061035156 349 L 273.20001220703125 349 L 273.20001220703125 339.20001220703125 L 273.20001220703125 334.5 L 273.20001220703125 331.79998779296875 L 273 331 L 272.70001220703125 330.20001220703125 L 272.5 329.6000061035156 L 272.20001220703125 329.1000061035156 L 271.8999938964844 328.6000061035156 L 271.70001220703125 328.20001220703125 L 271.29998779296875 327.79998779296875 L 271 327.5 L 270.70001220703125 327.1000061035156 L 270.20001220703125 326.70001220703125 L 269.79998779296875 326.29998779296875 L 269.20001220703125 325.79998779296875 L 268.79998779296875 325.5 L 268.29998779296875 325.1000061035156 L 268 324.79998779296875 L 267.1000061035156 323.70001220703125 L 266.29998779296875 324.79998779296875 L 265.79998779296875 325.20001220703125 L 265.3999938964844 325.6000061035156 L 265 325.8999938964844 L 264.6000061035156 326.20001220703125 L 264.20001220703125 326.5 L 263.79998779296875 326.8999938964844 L 263.5 327.20001220703125 L 263.1000061035156 327.6000061035156 L 262.79998779296875 327.8999938964844 L 262.6000061035156 328.29998779296875 L 262.29998779296875 328.70001220703125 L 262 329.1000061035156 L 261.70001220703125 329.70001220703125 L 261.5 330.20001220703125 L 261.3999938964844 330.70001220703125 L 261.20001220703125 331.29998779296875 L 261.1000061035156 331.79998779296875 Z" class="st1" style="fill: rgb(135, 134, 111);" transform="matrix(0.7848129868507384, 0, 0, 0.7848129868507384, 85.31111249431063, 50.266902923583984)"/><path d="M 280.20001220703125 349 L 292.29998779296875 349 L 292.29998779296875 339.20001220703125 L 292.29998779296875 334.5 L 292.29998779296875 331.79998779296875 L 292.1000061035156 331 L 291.79998779296875 330.20001220703125 L 291.6000061035156 329.6000061035156 L 291.29998779296875 329.1000061035156 L 291 328.6000061035156 L 290.79998779296875 328.20001220703125 L 290.3999938964844 327.79998779296875 L 290.1000061035156 327.5 L 289.79998779296875 327.1000061035156 L 289.29998779296875 326.70001220703125 L 288.8999938964844 326.29998779296875 L 288.29998779296875 325.79998779296875 L 287.8999938964844 325.5 L 287.3999938964844 325.1000061035156 L 287.1000061035156 324.79998779296875 L 286.20001220703125 323.70001220703125 L 285.3999938964844 324.79998779296875 L 284.8999938964844 325.20001220703125 L 284.5 325.6000061035156 L 284.1000061035156 325.8999938964844 L 283.70001220703125 326.20001220703125 L 283.29998779296875 326.5 L 282.8999938964844 326.8999938964844 L 282.6000061035156 327.20001220703125 L 282.20001220703125 327.6000061035156 L 281.8999938964844 327.8999938964844 L 281.70001220703125 328.29998779296875 L 281.3999938964844 328.70001220703125 L 281.1000061035156 329.1000061035156 L 280.79998779296875 329.70001220703125 L 280.6000061035156 330.20001220703125 L 280.5 330.70001220703125 L 280.29998779296875 331.29998779296875 L 280.20001220703125 331.79998779296875 Z" class="st1" style="fill: rgb(135, 134, 111);" transform="matrix(0.7848129868507384, 0, 0, 0.7848129868507384, 85.31111249431063, 50.266902923583984)"/><path d="M 242.3000030517578 349 L 254.39999389648438 349 L 254.39999389648438 339.20001220703125 L 254.39999389648438 334.5 L 254.39999389648438 331.79998779296875 L 254.1999969482422 331 L 253.89999389648438 330.20001220703125 L 253.6999969482422 329.6000061035156 L 253.39999389648438 329.1000061035156 L 253.10000610351562 328.6000061035156 L 252.89999389648438 328.20001220703125 L 252.5 327.79998779296875 L 252.1999969482422 327.5 L 251.89999389648438 327.1000061035156 L 251.39999389648438 326.70001220703125 L 251 326.29998779296875 L 250.39999389648438 325.79998779296875 L 250 325.5 L 249.60000610351562 325.1000061035156 L 249.1999969482422 324.79998779296875 L 248.3000030517578 323.70001220703125 L 247.5 324.79998779296875 L 247 325.20001220703125 L 246.60000610351562 325.6000061035156 L 246.1999969482422 325.8999938964844 L 245.8000030517578 326.20001220703125 L 245.39999389648438 326.5 L 245 326.8999938964844 L 244.6999969482422 327.20001220703125 L 244.3000030517578 327.6000061035156 L 244.10000610351562 327.8999938964844 L 243.8000030517578 328.29998779296875 L 243.5 328.70001220703125 L 243.1999969482422 329.1000061035156 L 242.89999389648438 329.70001220703125 L 242.6999969482422 330.20001220703125 L 242.60000610351562 330.70001220703125 L 242.39999389648438 331.29998779296875 L 242.3000030517578 331.79998779296875 Z" class="st1" style="fill: rgb(135, 134, 111);" transform="matrix(0.7848129868507384, 0, 0, 0.7848129868507384, 85.31111249431063, 50.266902923583984)"/><path d="M 323.299988 10.7 H 353.399988 V 25.8 H 323.299988 V 10.7 Z" class="st0" style="fill: rgb(201, 47, 47);" transform="matrix(0.7848129868507384, 0, 0, 0.7848129868507384, 85.31111249431063, 50.266902923583984)"/><path d="M 330.799988 10.7 H 345.899988 V 25.8 H 330.799988 V 10.7 Z" class="st3" style="fill: rgb(255, 255, 255);" transform="matrix(0.7848129868507384, 0, 0, 0.7848129868507384, 85.31111249431063, 50.266902923583984)"/><path class="st0" d="M338.3,12.1l-1,1.9c-0.1,0.2-0.3,0.2-0.5,0.1l-0.7-0.4l0.6,2.9c0.1,0.5-0.3,0.5-0.4,0.3l-1.3-1.5l-0.2,0.7&#10;&#9;&#9;c0,0.1-0.1,0.2-0.3,0.2l-1.6-0.3l0.4,1.6c0.1,0.3,0.2,0.5-0.1,0.6l-0.6,0.3l2.8,2.3c0.1,0.1,0.2,0.2,0.1,0.4l-0.2,0.8&#10;&#9;&#9;c1-0.1,1.8-0.3,2.8-0.4c0.1,0,0.2,0.1,0.2,0.2l-0.1,3h0.5l-0.1-3c0-0.1,0.1-0.2,0.2-0.2c1,0.1,1.8,0.3,2.8,0.4l-0.2-0.8&#10;&#9;&#9;c0-0.1,0-0.3,0.1-0.4l2.8-2.3l-0.6-0.3c-0.3-0.1-0.2-0.2-0.1-0.6L344,16l-1.6,0.3c-0.2,0-0.3-0.1-0.3-0.2l-0.2-0.7l-1.3,1.5&#10;&#9;&#9;c-0.2,0.2-0.6,0.2-0.4-0.3l0.6-2.9l-0.7,0.4c-0.2,0.1-0.4,0.1-0.5-0.1" style="fill: rgb(201, 47, 47);" transform="matrix(0.7848129868507384, 0, 0, 0.7848129868507384, 85.31111249431063, 50.266902923583984)"/><path d="M 323.399994 11.2 H 324.699994 V 47.999999 H 323.399994 V 11.2 Z" class="st2" style="fill: rgb(153, 138, 130);" transform="matrix(0.7848129868507384, 0, 0, 0.7848129868507384, 85.31111249431063, 50.266902923583984)"/>
<path d="M 138.87391662597656 67.44081115722656 C 138.87391662597656 67.44081115722656 153.1972198486328 39.367164611816406 176.11447143554688 69.73253631591797 C 199.03172302246094 100.09790802001953 100.48750305175781 86.34754943847656 100.48750305175781 86.34754943847656 C 100.48750305175781 86.34754943847656 94.75819396972656 79.47237396240234 105.07096099853516 75.46185302734375" style="fill: rgb(255, 251, 245); fill-opacity: 0.5; stroke: rgb(227, 235, 219); stroke-opacity: 1; stroke-width: 0; paint-order: fill;" transform="matrix(0.7704541910424118, -0.14939315819404705, 0.14939315819404705, 0.7704541910424118, 58.025338740769456, 62.040703928644334)"/><path d="M 138.87391662597656 67.44081115722656 C 138.87391662597656 67.44081115722656 153.1972198486328 39.367164611816406 176.11447143554688 69.73253631591797 C 199.03172302246094 100.09790802001953 100.48750305175781 86.34754943847656 100.48750305175781 86.34754943847656 C 100.48750305175781 86.34754943847656 94.75819396972656 79.47237396240234 105.07096099853516 75.46185302734375" style="fill: rgb(255, 251, 245); fill-opacity: 0.5; stroke: rgb(227, 235, 219); stroke-opacity: 1; stroke-width: 0; paint-order: fill;" transform="matrix(-0.4527101516723632, 0.05937884747982024, 0.05937884747982024, 0.4527101516723632, 556.1801081608144, 95.62882995605463)"/></svg>