<?xml version="1.0" encoding="iso-8859-1"?>
<!-- Generator: Adobe Illustrator 19.0.0, SVG Export Plug-In . SVG Version: 6.00 Build 0)  -->
<svg version="1.1" id="Capa_1" xmlns="http://www.w3.org/2000/svg" xmlns:xlink="http://www.w3.org/1999/xlink" x="0px" y="0px"
	 viewBox="0 0 512 512" style="enable-background:new 0 0 512 512;" xml:space="preserve">
<path style="fill:#5C5E70;" d="M511.795,256.204c0,12.048-0.835,23.909-2.454,35.519c-3.936,28.378-12.529,55.262-24.984,79.871
	C442.177,454.9,355.76,512,256,512c-19.179,0-37.858-2.109-55.826-6.118c-9.167-2.025-18.135-4.563-26.895-7.549
	c-4.688-1.608-9.313-3.341-13.876-5.199c-35.749-14.596-67.457-37.043-92.984-65.202c-6.202-6.839-12.038-14.022-17.488-21.508
	c-7.121-9.804-13.562-20.119-19.253-30.904c-12.738-24.097-21.727-50.48-26.206-78.367c-2.151-13.333-3.268-27.01-3.268-40.948
	c0-4.124,0.094-8.227,0.292-12.299c1.817-38.515,12.163-74.807,29.182-107.016C64.675,70.643,127.893,21.624,203.337,5.838
	c6.598-1.389,13.291-2.506,20.056-3.372c0.198-0.021,0.397-0.052,0.585-0.073C234.471,1.088,245.152,0.409,256,0.409
	c52.652,0,101.608,15.912,142.285,43.193c11.85,7.945,22.99,16.862,33.326,26.624c8.77,8.279,16.956,17.185,24.483,26.624
	c6.745,8.457,12.957,17.342,18.605,26.624c11.923,19.587,21.278,40.917,27.615,63.5c2.036,7.256,3.759,14.648,5.147,22.145
	C510.313,224.381,511.795,240.115,511.795,256.204z"/>
<path style="fill:#D6C8B0;" d="M230.765,14.316v382.586c0,45.375-30.069,83.734-71.362,96.231
	c-35.749-14.596-67.457-37.043-92.984-65.202c-6.202-6.839-12.038-14.022-17.488-21.508c-7.121-9.804-13.562-20.119-19.253-30.904
	V14.316c0-7.653,6.212-13.865,13.876-13.865h173.335c0.532,0,1.065,0.031,1.587,0.094c1.994,0.219,3.863,0.877,5.502,1.848
	c0.418,0.251,0.825,0.522,1.211,0.814h0.01C228.583,5.744,230.765,9.774,230.765,14.316z"/>
<path style="fill:#FF6E7C;" d="M187.834,127.135H72.607c-8.864,0-16.049-7.185-16.049-16.049V41.65
	c0-8.864,7.185-16.049,16.049-16.049h115.227c8.864,0,16.049,7.185,16.049,16.049v69.436
	C203.883,119.95,196.698,127.135,187.834,127.135z"/>
<path style="fill:#FF525D;" d="M187.834,252.064H72.607c-8.864,0-16.049-7.185-16.049-16.049v-69.436
	c0-8.864,7.185-16.049,16.049-16.049h115.227c8.864,0,16.049,7.185,16.049,16.049v69.436
	C203.883,244.879,196.698,252.064,187.834,252.064z"/>
<path style="fill:#EF4152;" d="M187.834,376.992H72.607c-8.864,0-16.049-7.185-16.049-16.049v-69.436
	c0-8.864,7.185-16.049,16.049-16.049h115.227c8.864,0,16.049,7.185,16.049,16.049v69.436
	C203.883,369.806,196.698,376.992,187.834,376.992z"/>
<g>
	<circle style="fill:#78CAEF;" cx="130.215" cy="447.172" r="18.908"/>
	<circle style="fill:#78CAEF;" cx="130.215" cy="447.172" r="18.908"/>
</g>
<path style="fill:#E8DBC4;" d="M387.792,85.062L242.323,438.905c-12.685,30.852-38.954,52.026-69.044,59.428
	c-4.688-1.608-9.313-3.341-13.876-5.199c-35.749-14.596-67.457-37.043-92.984-65.202c-6.202-6.839-12.038-14.022-17.488-21.508
	c-0.846-14.575,1.493-29.568,7.413-43.976L201.823,8.605c0.407-1.002,0.919-1.921,1.514-2.767c1.932-2.715,4.74-4.583,7.851-5.387
	c2.339-0.616,4.844-0.616,7.288,0.094c0.491,0.136,0.971,0.303,1.451,0.501l3.466,1.42l1.796,0.741h0.01l150.261,61.788l4.782,1.963
	c0.553,0.23,1.086,0.491,1.587,0.783c2.057,1.159,3.727,2.798,4.907,4.719C389.013,76.114,389.556,80.771,387.792,85.062z"/>
<path style="fill:#78CAEF;" d="M305.196,173.081l-106.573-43.814c-8.198-3.37-12.111-12.748-8.741-20.946L216.285,44.1
	c3.37-8.198,12.748-12.111,20.946-8.741l106.573,43.814c8.198,3.37,12.111,12.748,8.741,20.946l-26.402,64.221
	C322.772,172.537,313.394,176.452,305.196,173.081z"/>
<path style="fill:#34ABE0;" d="M257.693,288.626l-106.572-43.814c-8.198-3.37-12.111-12.748-8.741-20.946l26.402-64.221
	c3.37-8.198,12.748-12.111,20.946-8.741l106.573,43.814c8.198,3.37,12.111,12.748,8.741,20.946l-26.402,64.221
	C275.269,288.082,265.891,291.996,257.693,288.626z"/>
<path style="fill:#279FC9;" d="M210.192,404.17l-106.573-43.814c-8.198-3.37-12.111-12.748-8.741-20.946l26.402-64.221
	c3.37-8.198,12.748-12.111,20.946-8.741l106.573,43.814c8.198,3.37,12.111,12.748,8.741,20.946l-26.402,64.221
	C227.767,403.626,218.39,407.54,210.192,404.17z"/>
<g>
	<circle style="fill:#78CAEF;" cx="130.215" cy="447.172" r="18.908"/>
	<circle style="fill:#78CAEF;" cx="130.215" cy="447.172" r="18.908"/>
</g>
<path style="fill:#F9EED7;" d="M507.462,209.117c-0.345,0.47-0.731,0.919-1.159,1.347L237.019,482.223
	c-10.754,10.858-23.377,18.751-36.845,23.658c-9.167-2.025-18.135-4.563-26.895-7.549c-4.688-1.608-9.313-3.341-13.876-5.199
	c-35.749-14.596-67.457-37.043-92.984-65.202c-5.085-30.748,4.155-63.406,27.762-87.231l136.584-137.848l132.7-133.922
	c3.257-3.289,7.747-4.604,11.996-3.936c2.266,0.345,4.469,1.263,6.369,2.746c0.439,0.334,0.856,0.7,1.253,1.096l3.654,3.623
	l115.578,114.513l3.894,3.863C511.221,195.805,511.649,203.646,507.462,209.117z"/>
<path style="fill:#FFDC8D;" d="M396.402,260.385l-81.851-81.103c-6.297-6.238-6.343-16.4-0.104-22.697l48.873-49.325
	c6.238-6.297,16.4-6.343,22.697-0.104l81.851,81.103c6.297,6.238,6.343,16.4,0.104,22.697l-48.873,49.325
	C412.86,266.577,402.699,266.624,396.402,260.385z"/>
<path style="fill:#FFD15C;" d="M308.472,349.128l-81.851-81.103c-6.297-6.238-6.343-16.4-0.104-22.697l48.873-49.325
	c6.238-6.297,16.4-6.343,22.697-0.104l81.851,81.103c6.297,6.238,6.343,16.4,0.104,22.697l-48.873,49.325
	C324.93,355.319,314.768,355.366,308.472,349.128z"/>
<path style="fill:#EDBB4C;" d="M220.541,437.87l-81.851-81.103c-6.297-6.238-6.343-16.4-0.104-22.697l48.873-49.325
	c6.238-6.297,16.4-6.343,22.697-0.104l81.851,81.103c6.297,6.238,6.343,16.4,0.104,22.697l-48.873,49.325
	C237,444.062,226.838,444.109,220.541,437.87z"/>
<g>
	<circle style="fill:#78CAEF;" cx="130.215" cy="447.172" r="18.908"/>
	<circle style="fill:#78CAEF;" cx="130.215" cy="447.172" r="18.908"/>
</g>
<g>
</g>
<g>
</g>
<g>
</g>
<g>
</g>
<g>
</g>
<g>
</g>
<g>
</g>
<g>
</g>
<g>
</g>
<g>
</g>
<g>
</g>
<g>
</g>
<g>
</g>
<g>
</g>
<g>
</g>
</svg>
