<?xml version="1.0" encoding="iso-8859-1"?>
<!-- Generator: Adobe Illustrator 19.0.0, SVG Export Plug-In . SVG Version: 6.00 Build 0)  -->
<svg version="1.1" id="Capa_1" xmlns="http://www.w3.org/2000/svg" xmlns:xlink="http://www.w3.org/1999/xlink" x="0px" y="0px"
	 viewBox="0 0 58 58" style="enable-background:new 0 0 58 58;" xml:space="preserve">
<g>
	<path style="fill:#556080;" d="M29,58c0.169,0,0.333-0.02,0.501-0.025C29.168,57.986,28.836,58,28.5,58H29z"/>
	<path style="fill:#556080;" d="M29.501,57.975c0.327-0.011,0.653-0.027,0.977-0.049C30.157,57.958,29.828,57.963,29.501,57.975z"/>
	<path style="fill:#556080;" d="M57.5,29c0-15.905-12.805-28.812-28.667-28.992C20.903,0.099,14.5,6.548,14.5,14.5
		C14.5,22.508,20.992,29,29,29s14.5,6.492,14.5,14.5c0,7.507-5.705,13.682-13.016,14.425C45.574,56.904,57.5,44.349,57.5,29z"/>
	<path style="fill:#556080;" d="M28.5,0c0.112,0,0.222,0.007,0.333,0.008C28.889,0.008,28.944,0,29,0H28.5z"/>
	<path style="fill:#556080;" d="M30.478,57.925c0.002,0,0.004,0,0.006,0C30.482,57.925,30.48,57.925,30.478,57.925z"/>
</g>
<g>
	<path style="fill:#E6E7E8;" d="M29,0c-0.169,0-0.333,0.02-0.501,0.025C28.832,0.014,29.164,0,29.5,0L29,0z"/>
	<path style="fill:#E6E7E8;" d="M28.499,0.025c-0.327,0.011-0.653,0.027-0.977,0.049C27.843,0.042,28.172,0.037,28.499,0.025z"/>
	<path style="fill:#E6E7E8;" d="M0.5,29c0,15.905,12.805,28.812,28.667,28.992C37.097,57.901,43.5,51.452,43.5,43.5
		C43.5,35.492,37.008,29,29,29s-14.5-6.492-14.5-14.5c0-7.507,5.705-13.682,13.016-14.425C12.426,1.096,0.5,13.651,0.5,29z"/>
	<path style="fill:#E6E7E8;" d="M29.5,58c-0.112,0-0.222-0.007-0.333-0.008C29.111,57.992,29.056,58,29,58H29.5z"/>
	<path style="fill:#E6E7E8;" d="M27.522,0.075c-0.002,0-0.004,0-0.006,0C27.518,0.075,27.52,0.075,27.522,0.075z"/>
</g>
<circle style="fill:#E6E7E8;" cx="29.5" cy="14" r="6"/>
<circle style="fill:#556080;" cx="29.5" cy="44" r="6"/>
<g>
</g>
<g>
</g>
<g>
</g>
<g>
</g>
<g>
</g>
<g>
</g>
<g>
</g>
<g>
</g>
<g>
</g>
<g>
</g>
<g>
</g>
<g>
</g>
<g>
</g>
<g>
</g>
<g>
</g>
</svg>
