<?xml version="1.0" encoding="utf-8"?>
<!-- Generator: Adobe Illustrator 16.0.0, SVG Export Plug-In . SVG Version: 6.00 Build 0)  -->
<!DOCTYPE svg PUBLIC "-//W3C//DTD SVG 1.1//EN" "http://www.w3.org/Graphics/SVG/1.1/DTD/svg11.dtd">
<svg version="1.1" id="Layer_1" xmlns="http://www.w3.org/2000/svg" xmlns:xlink="http://www.w3.org/1999/xlink" x="0px" y="0px"
	 width="250px" height="135.667px" viewBox="0 0 250 135.667" enable-background="new 0 0 250 135.667" xml:space="preserve">
<path fill="#E6E6E6" d="M171.049,62.656h-14.935v9.957h9.956c2.738,0,4.979,2.24,4.979,4.979v24.892c0,2.738-2.24,4.979-4.979,4.979
	h-9.956v9.957h14.935c5.477,0,9.957-4.48,9.957-9.957V72.613C181.006,67.137,176.525,62.656,171.049,62.656z"/>
<path fill="#FFFFFF" d="M141.18,22.253c-3.442,0-6.604,1.175-9.129,3.131c-2.479-4.812-7.487-8.109-13.274-8.109
	c-2.114,0-4.12,0.442-5.942,1.234c-2.959-3.776-7.554-6.213-12.727-6.213c-7.778,0-14.268,5.488-15.821,12.805
	c-0.918-0.217-1.864-0.359-2.848-0.359c-6.873,0-12.446,5.573-12.446,12.446v19.913c0,2.738,2.24,4.979,4.979,4.979h2.489
	c2.738,0,4.979-2.24,4.979-4.979v-3.973c1.508,0.924,3.258,1.484,5.147,1.484h4.896c3.173,0,5.979-1.531,7.806-3.861
	c2.711,3.83,7.167,6.35,12.19,6.35c8.214,0,14.936-6.721,14.936-14.935h28.832c0.552-1.559,0.868-3.231,0.868-4.979
	C156.114,28.938,149.428,22.253,141.18,22.253z"/>
<path fill="#F4C44E" d="M126.414,42.166c0,8.214-6.721,14.935-14.936,14.935c-5.023,0-9.479-2.52-12.19-6.35
	c-1.827,2.33-4.632,3.861-7.806,3.861h-4.896c-1.887,0-3.639-0.561-5.147-1.484v76.159c0,6.845,5.601,12.446,12.446,12.446h49.783
	c6.846,0,12.446-5.602,12.446-12.446V42.166H126.414z"/>
<path fill="#F9DA49" d="M96.374,74.525c0-4.107-3.36-7.468-7.467-7.468c-4.107,0-7.468,3.36-7.468,7.468v52.272h14.935V74.525z"/>
<path fill="#EEAF4B" d="M111.309,74.525c0-4.107-3.36-7.468-7.467-7.468c-4.107,0-7.468,3.36-7.468,7.468v52.272h14.935V74.525z"/>
<path fill="#F9DA49" d="M126.244,74.525c0-4.107-3.36-7.468-7.467-7.468c-4.108,0-7.468,3.36-7.468,7.468v52.272h14.936V74.525z"/>
<path fill="#EEAF4B" d="M141.18,74.525c0-4.107-3.36-7.468-7.469-7.468c-4.105,0-7.467,3.36-7.467,7.468v52.272h14.936V74.525z"/>
<path fill="#F9DA49" d="M156.114,74.525c0-4.107-3.36-7.468-7.468-7.468s-7.467,3.36-7.467,7.468v52.272h14.935V74.525z"/>
<g>
	<path fill="#64798A" d="M107.055,83.532c-8.155,0-14.79,6.635-14.79,14.791v19.631c0,8.155,6.635,14.79,14.79,14.79
		s14.79-6.635,14.79-14.79V98.323C121.845,90.167,115.21,83.532,107.055,83.532z M115.171,117.954c0,4.476-3.64,8.115-8.116,8.115
		c-4.476,0-8.116-3.64-8.116-8.115V98.323c0-4.477,3.64-8.116,8.116-8.116c4.476,0,8.116,3.64,8.116,8.116V117.954z"/>
	<path fill="#D5D6DB" d="M93.715,149.909H48.929c-1.042,0-1.886-0.845-1.886-1.886v-1.902h48.558v1.902
		C95.601,149.064,94.757,149.909,93.715,149.909z"/>
	<path fill="#EBF0F3" d="M43.511,70.155c-1.595,0-2.872,1.323-2.815,2.916l2.495,70.333c0.054,1.517,1.298,2.717,2.815,2.717H84.35
		V70.155H43.511z"/>
	<path fill="#E1E6E9" d="M99.134,70.155H84.35v75.966h12.29c1.517,0,2.762-1.2,2.815-2.717l2.495-70.333
		C102.006,71.479,100.729,70.155,99.134,70.155z"/>
	<path fill="#E56353" d="M68.688,100.273H53.486c-0.781,0-1.415,0.634-1.415,1.415v18.267c0,0.781,0.634,1.414,1.415,1.414h15.202
		c0.781,0,1.415-0.633,1.415-1.414v-18.267C70.103,100.907,69.469,100.273,68.688,100.273z"/>
	<circle fill="#D15241" cx="61.087" cy="103.093" r="1.436"/>
	<rect x="60.361" y="70.155" fill="#64798A" width="1.449" height="33.18"/>
</g>
<g>
	<path fill="#E3D7B1" d="M180.687,105.966v2.594h-50.207l-0.48-2.594c-2.964-18.416,27.29-2.934,29.116-22.586
		C171.886,83.38,180.354,95.541,180.687,105.966z"/>
	<path fill="#C4B899" d="M180.687,108.56h-39.871l-0.047-0.252c-2.921-18.144,26.403-3.384,29.017-21.738
		c6.63,4.304,10.674,12.256,10.901,19.396V108.56L180.687,108.56z"/>
	<path fill="#9A7F50" d="M185.851,108.592l-11.015,55.382c-0.203,1.026-1.099,1.765-2.141,1.765h-17.363h-0.841h-17.362
		c-1.041,0-1.937-0.738-2.14-1.765l-11.016-55.382c-0.27-1.358,0.764-2.626,2.141-2.626h28.377h0.841h28.378
		C185.087,105.966,186.121,107.233,185.851,108.592z"/>
	<path fill="#6E5840" d="M201.772,114.936c-0.625-0.766-1.548-1.206-2.532-1.206h-14.412l1.022-5.138
		c0.271-1.358-0.764-2.626-2.141-2.626h-28.378h-0.841h-12.279l9.076,45.636c0.472,2.378-1.062,4.69-3.427,5.167
		c-0.288,0.058-0.576,0.086-0.859,0.086c-2.039,0-3.861-1.443-4.276-3.53l-9.373-47.124c-0.016-0.078-0.023-0.156-0.034-0.234
		h-7.204c-1.377,0-2.41,1.268-2.141,2.626l11.016,55.381c0.203,1.026,1.099,1.766,2.14,1.766h17.362h0.841h17.363
		c1.042,0,1.938-0.738,2.141-1.766l1.253-6.299h15.722c1.556,0,2.905-1.113,3.21-2.646l7.431-37.358
		C202.645,116.698,202.397,115.702,201.772,114.936z M189.126,151.089h-11.727l6.12-30.773h11.727L189.126,151.089z"/>
</g>
</svg>
