<?xml version="1.0" encoding="utf-8"?>
<!-- Generator: Adobe Illustrator 16.0.0, SVG Export Plug-In . SVG Version: 6.00 Build 0)  -->
<!DOCTYPE svg PUBLIC "-//W3C//DTD SVG 1.1//EN" "http://www.w3.org/Graphics/SVG/1.1/DTD/svg11.dtd">
<svg version="1.1" id="Layer_1" xmlns="http://www.w3.org/2000/svg" xmlns:xlink="http://www.w3.org/1999/xlink" x="0px" y="0px"
	 width="640px" height="480px" viewBox="0 0 640 480" enable-background="new 0 0 640 480" xml:space="preserve">
<g>
	<path fill="#F2F2F2" d="M416.006,317.344c0,0-14.363-14.275-20.65-20.436c-1.618-1.584-1.716-4.104-0.317-5.883
		c29.916-38.012,26.997-93.433-8.821-128.008c-35.735-34.502-93.486-35.584-130.405-2.354
		c-41.102,36.993-42.354,100.354-3.754,138.955c31.866,31.865,80.6,36.559,117.451,14.104c2.042-1.243,4.646-0.979,6.288,0.761
		c6.312,6.652,21.25,21.815,21.25,21.815c5.215,5.215,13.744,5.215,18.954,0C421.216,331.084,421.216,322.555,416.006,317.344z"/>
	<path fill="#E6E6E6" d="M396.915,135.505c21.279,0,38.533-12,38.533-26.807c0-14.807-17.249-26.807-38.533-26.807
		c-10.074,0-19.237,2.695-26.095,7.102c-11.79,7.579-25.14,12.394-39.157,12.394H231.661c-3.685,0-6.702,3.017-6.702,6.702v1.218
		c0,3.685,3.017,6.702,6.702,6.702h100.002c14.018,0,27.367,4.815,39.157,12.395C377.678,132.81,386.841,135.505,396.915,135.505z"
		/>
	<path fill="#D2D5D7" d="M395.355,296.908c5.863,5.746,18.759,18.555,20.455,20.241c20.725-22.907,33.348-53.281,33.348-86.604
		c0-38.06-16.469-72.27-42.666-95.908c-3.065,0.546-6.263,0.868-9.577,0.868c-10.074,0-19.237-2.695-26.095-7.102
		c-11.79-7.579-25.14-12.395-39.157-12.395h-71.339c-41.282,21.553-69.482,64.74-69.482,114.536
		c0,71.329,57.829,129.158,129.158,129.158c28.347,0,54.539-9.153,75.838-24.638c-3.655-3.719-14.807-15.07-20.041-20.587
		c-1.648-1.735-4.246-2.003-6.288-0.76c-36.852,22.453-85.585,17.765-117.451-14.105c-38.601-38.602-37.348-101.962,3.758-138.955
		c36.92-33.229,94.671-32.147,130.406,2.354c35.813,34.575,38.737,90.001,8.821,128.013
		C393.64,292.805,393.737,295.324,395.355,296.908z"/>
	<circle fill="#6A3311" cx="319.751" cy="231.925" r="75.545"/>
	<path fill="#A46F3E" d="M359.552,196.998c-1.247,0-2.495-0.478-3.446-1.428c-3.918-3.919-8.402-7.16-13.311-9.626
		c-2.408-1.204-3.378-4.138-2.169-6.541c1.199-2.402,4.134-3.378,6.541-2.169c5.85,2.935,11.176,6.785,15.835,11.444
		c1.906,1.905,1.906,4.986,0,6.892C362.047,196.525,360.799,196.998,359.552,196.998z"/>
	<path fill="#A46F3E" d="M279.956,196.998c-1.247,0-2.495-0.478-3.445-1.428c-1.906-1.905-1.906-4.986,0-6.892
		c13.154-13.159,31.319-19.579,49.85-17.561c2.677,0.292,4.61,2.695,4.323,5.371c-0.297,2.671-2.676,4.591-5.371,4.323
		c-15.558-1.662-30.847,3.694-41.91,14.758C282.451,196.525,281.204,196.998,279.956,196.998z"/>
</g>
<g transform="translate(0 -1)">
	<path fill="#9B512D" d="M515.28,317.016h-1.058c-4.096,0-7.418-3.321-7.418-7.418l0,0c0-11.672,9.461-21.133,21.133-21.133h1.058
		c4.097,0,7.418,3.321,7.418,7.418l0,0C536.413,307.553,526.951,317.016,515.28,317.016"/>
	<path fill="#4C312C" d="M477.317,281.901l0.481-0.941c1.87-3.649,6.492-5.164,10.32-3.381l0,0
		c10.91,5.078,15.435,17.622,10.106,28.02l-0.481,0.942c-1.871,3.649-6.493,5.162-10.321,3.381l0,0
		C476.514,304.843,471.989,292.299,477.317,281.901"/>
	<path fill="#6A3311" d="M478.236,332.692l-0.787-0.718c-3.048-2.783-3.168-7.409-0.27-10.336l0,0
		c8.046-8.63,21.754-8.994,30.668-0.739l0.786,0.719c3.085,2.773,3.201,7.398,0.271,10.335l0,0
		C500.778,339.945,487.053,340.26,478.236,332.692"/>
	<path fill="#684B47" d="M494.189,309.916c-0.094-0.238-0.267-0.446-0.517-0.567c-2.805-1.354-4.767-3.627-5.52-6.399
		c-0.78-2.86-0.229-5.992,1.51-8.592c0.034-0.05,0.063-0.102,0.087-0.156c2.906-6.508,0.352-13.729-5.931-17.312
		c-0.902,0.104-1.776,0.359-2.584,0.751c0.098,0.236,0.273,0.441,0.523,0.558c6.025,2.804,8.634,9.267,6.096,15.063
		c-2.038,3.094-2.673,6.821-1.742,10.243c0.808,2.97,2.735,5.457,5.481,7.118C492.498,310.533,493.376,310.294,494.189,309.916"/>
	<path fill="#753D1F" d="M510.857,328.397c0.188-0.861,0.212-1.745,0.072-2.611c-0.232,0.022-0.459,0.104-0.639,0.277
		c-5.167,5.007-10.895,4.868-16.129-0.393c-5.702-5.694-12.392-5.812-18.932-0.4c-0.17,0.84-0.186,1.7-0.048,2.544
		c0.219-0.021,0.435-0.091,0.609-0.249c6.019-5.438,11.696-5.571,16.874-0.401c3.118,3.135,6.464,4.705,9.799,4.705
		C505.32,331.869,508.168,330.706,510.857,328.397"/>
	<path fill="#B76748" d="M535.298,291.984c-0.476-0.768-1.085-1.439-1.8-1.986c-0.148,0.182-0.248,0.405-0.248,0.657
		c0,6.084-4.896,10.498-11.641,10.498c-7.146,0-13.029,5.436-13.682,12.354c0.473,0.758,1.075,1.424,1.779,1.966
		c0.164-0.187,0.271-0.423,0.271-0.688c0-6.35,5.218-11.517,11.632-11.517C529.088,303.269,534.641,298.599,535.298,291.984"/>
</g>
</svg>
