<?xml version="1.0" encoding="utf-8"?>
<!-- Generator: Adobe Illustrator 16.0.0, SVG Export Plug-In . SVG Version: 6.00 Build 0)  -->
<!DOCTYPE svg PUBLIC "-//W3C//DTD SVG 1.1//EN" "http://www.w3.org/Graphics/SVG/1.1/DTD/svg11.dtd">
<svg version="1.1" id="Layer_1" xmlns="http://www.w3.org/2000/svg" xmlns:xlink="http://www.w3.org/1999/xlink" x="0px" y="0px"
	 width="250px" height="250px" viewBox="0 0 250 250" enable-background="new 0 0 250 250" xml:space="preserve">
<path fill="#2980BA" d="M207.412,232.203v-2.768c0-21.603-24.555-39.117-54.846-39.117h-43.002
	c-30.288,0-54.844,17.515-54.844,39.117v2.768c0,6.444,2.2,12.52,6.072,17.881H201.34
	C205.213,244.723,207.412,238.648,207.412,232.203z"/>
<path fill="#E8AD86" d="M106.488,198.833c-0.01,15.275,22.852,22.937,22.852,22.937s22.889-7.626,22.898-22.903
	c0.012-15.277-9.816-19.317-22.854-19.328C116.346,179.527,106.5,183.556,106.488,198.833z"/>
<path fill="#F7B78F" d="M109.861,194.764c0,10.77,8.733,19.502,19.502,19.502l0,0c10.771,0,19.504-8.732,19.504-19.502v-30.445
	c0-10.773-8.732-19.503-19.504-19.503l0,0c-10.769,0-19.502,8.729-19.502,19.503V194.764z"/>
<polygon fill="#CDCCCC" points="129.352,211.315 129.34,221.77 151.205,216.016 "/>
<polygon fill="#F7F8F8" points="148.867,182.497 161.654,190.406 155.26,231.561 129.352,211.315 "/>
<polygon fill="#A9A8A8" points="129.352,211.315 129.363,221.77 107.5,216.016 "/>
<polygon fill="#F1F0F0" points="109.837,182.497 97.049,190.406 103.444,231.561 129.352,211.315 "/>
<path fill="#E8AD86" d="M129.363,144.546c10.771,0,19.504,8.73,19.504,19.502v16.517c-5.623,1.98-12.316,3.134-19.504,3.134
	c-7.188,0-13.878-1.627-19.502-3.606v-16.044C109.861,153.276,118.594,144.546,129.363,144.546z"/>
<path fill="#F5B78E" d="M66.902,112.105c0.724,16.581,12.739,36.942,21.845,48.692c12.564,16.21,25.22,20.838,45.923,19.934
	c21.869-0.95,35.459-14.275,45.498-33.113c6.352-11.917,11.49-25.731,10.822-41.024c-0.783-18.048,0.744-41.046-9.791-53.187
	c-12.496-14.401-33.381-16.405-52.755-15.561C92.738,39.4,65.182,72.649,66.902,112.105z"/>
<path fill="#414042" d="M158.369,100.357c0,5.994,4.424,10.853,9.883,10.853c5.457,0,9.883-4.859,9.883-10.853
	c0-5.997-4.426-10.856-9.883-10.856C162.793,89.501,158.369,94.36,158.369,100.357z"/>
<path fill="#414042" d="M103.333,100.357c0,5.994,4.425,10.853,9.883,10.853c5.457,0,9.884-4.859,9.884-10.853
	c0-5.997-4.428-10.856-9.884-10.856C107.758,89.501,103.333,94.36,103.333,100.357z"/>
<path fill="#414042" d="M61.122,97.47c0,0-0.32-40.442,8.568-46.304c0,0,18.304-2.942,25.009,6.546
	c6.709,9.489-23.193,35.171-23.193,35.171"/>
<path fill="#414042" d="M69.26,53.627c0,0,19.839-49.581,102.174-22.884c0,0,11.363,7.431,20.457,22.085
	c0,0,9.502,17.229-30.627,15.654c-40.131-1.574-56.026-2.815-63.607-5.466"/>
<ellipse transform="matrix(-0.9991 0.0435 -0.0435 -0.9991 148.8843 223.9883)" fill="#F5B78E" cx="72.005" cy="113.614" rx="16.91" ry="21.952"/>
<path fill="#FFFFFF" d="M158.947,137.384c0,10.391-8.428,18.817-18.818,18.817c-10.395,0-18.818-8.427-18.818-18.817"/>
</svg>
